<?xml version="1.0" encoding="iso-8859-1"?>
<!-- Generator: Adobe Illustrator 19.0.0, SVG Export Plug-In . SVG Version: 6.00 Build 0)  -->
<svg version="1.1" id="Capa_1" xmlns="http://www.w3.org/2000/svg" xmlns:xlink="http://www.w3.org/1999/xlink" x="0px" y="0px"
	 viewBox="0 0 512 512" style="enable-background:new 0 0 512 512;" xml:space="preserve">
<path style="fill:#E0C48C;" d="M274.175,328.193h-36.904c-4.151,0-7.515,3.364-7.515,7.515v45.517c0,4.151,3.364,7.515,7.515,7.515
	h36.904c4.151,0,7.515-3.364,7.515-7.515v-45.517C281.69,331.557,278.325,328.193,274.175,328.193z"/>
<g>
	<path style="fill:#4FA9ED;" d="M256.276,194.987c-4.151,0-7.515-3.364-7.515-7.515v-1.107c0-4.151,3.364-7.515,7.515-7.515
		s7.515,3.364,7.515,7.515v1.107C263.791,191.623,260.427,194.987,256.276,194.987z"/>
	<path style="fill:#4FA9ED;" d="M256.276,160.743c-4.151,0-7.515-3.364-7.515-7.515v-1.107c0-4.151,3.364-7.515,7.515-7.515
		s7.515,3.364,7.515,7.515v1.107C263.791,157.378,260.427,160.743,256.276,160.743z"/>
	<path style="fill:#4FA9ED;" d="M256.276,126.497c-4.151,0-7.515-3.364-7.515-7.515v-1.106c0-4.151,3.364-7.515,7.515-7.515
		s7.515,3.364,7.515,7.515v1.106C263.791,123.133,260.427,126.497,256.276,126.497z"/>
	<path style="fill:#4FA9ED;" d="M256.276,92.252c-4.151,0-7.515-3.364-7.515-7.515V83.63c0-4.151,3.364-7.515,7.515-7.515
		s7.515,3.364,7.515,7.515v1.107C263.791,88.889,260.427,92.252,256.276,92.252z"/>
	<path style="fill:#4FA9ED;" d="M256.276,58.007c-4.151,0-7.515-3.364-7.515-7.515v-1.107c0-4.151,3.364-7.515,7.515-7.515
		s7.515,3.364,7.515,7.515v1.106C263.791,54.643,260.427,58.007,256.276,58.007z"/>
	<path style="fill:#4FA9ED;" d="M256.276,23.763c-4.151,0-7.515-3.364-7.515-7.515v-1.107c0-4.151,3.364-7.515,7.515-7.515
		s7.515,3.364,7.515,7.515v1.107C263.791,20.399,260.427,23.763,256.276,23.763z"/>
	<path style="fill:#4FA9ED;" d="M313.492,210.617c-1.275,0-2.568-0.325-3.751-1.009c-3.594-2.075-4.824-6.671-2.749-10.265
		l0.555-0.959c2.075-3.594,6.673-4.823,10.265-2.748c3.594,2.075,4.824,6.671,2.749,10.265l-0.555,0.959
		C318.614,209.269,316.088,210.617,313.492,210.617z"/>
	<path style="fill:#4FA9ED;" d="M330.615,180.961c-1.273,0-2.564-0.324-3.746-1.006c-3.595-2.072-4.829-6.667-2.756-10.263
		l0.553-0.959c2.072-3.596,6.666-4.829,10.263-2.756c3.596,2.072,4.829,6.667,2.756,10.263l-0.553,0.959
		C335.741,179.612,333.213,180.961,330.615,180.961z"/>
	<path style="fill:#4FA9ED;" d="M347.738,151.303c-1.275,0-2.568-0.325-3.751-1.009c-3.594-2.075-4.824-6.671-2.749-10.265
		l0.555-0.959c2.075-3.595,6.672-4.823,10.265-2.748c3.594,2.075,4.824,6.671,2.749,10.265l-0.555,0.959
		C352.86,149.956,350.333,151.303,347.738,151.303z"/>
	<path style="fill:#4FA9ED;" d="M364.859,121.647c-1.275,0-2.568-0.325-3.751-1.009c-3.594-2.075-4.824-6.671-2.749-10.265
		l0.555-0.959c2.075-3.595,6.672-4.824,10.265-2.748c3.594,2.075,4.824,6.671,2.749,10.265l-0.555,0.959
		C369.982,120.3,367.455,121.647,364.859,121.647z"/>
	<path style="fill:#4FA9ED;" d="M381.981,91.99c-1.276,0-2.568-0.325-3.751-1.009c-3.594-2.075-4.824-6.671-2.749-10.265
		l0.555-0.959c2.075-3.595,6.673-4.823,10.265-2.748c3.594,2.075,4.824,6.671,2.749,10.265l-0.555,0.959
		C387.104,90.642,384.577,91.99,381.981,91.99z"/>
	<path style="fill:#4FA9ED;" d="M399.105,62.333c-1.273,0-2.564-0.324-3.746-1.006c-3.596-2.072-4.829-6.667-2.756-10.263
		l0.553-0.959c2.071-3.597,6.667-4.829,10.263-2.756c3.595,2.072,4.829,6.667,2.756,10.263l-0.553,0.959
		C404.231,60.983,401.703,62.333,399.105,62.333z"/>
	<path style="fill:#4FA9ED;" d="M355.247,252.764c-2.599,0-5.126-1.35-6.517-3.762c-2.073-3.596-0.839-8.191,2.756-10.263
		l0.959-0.553c3.597-2.072,8.191-0.84,10.263,2.756c2.073,3.596,0.839,8.191-2.756,10.263l-0.959,0.553
		C357.81,252.439,356.521,252.764,355.247,252.764z"/>
	<path style="fill:#4FA9ED;" d="M384.904,235.642c-2.597,0-5.122-1.348-6.514-3.757c-2.076-3.594-0.846-8.19,2.748-10.265
		l0.959-0.555c3.596-2.074,8.191-0.845,10.265,2.749c2.076,3.594,0.846,8.19-2.748,10.265l-0.959,0.555
		C387.472,235.317,386.18,235.642,384.904,235.642z"/>
	<path style="fill:#4FA9ED;" d="M414.561,218.519c-2.597,0-5.122-1.348-6.514-3.757c-2.076-3.594-0.846-8.19,2.748-10.265
		l0.959-0.555c3.596-2.074,8.191-0.844,10.265,2.749c2.076,3.594,0.846,8.19-2.748,10.265l-0.959,0.555
		C417.128,218.195,415.835,218.519,414.561,218.519z"/>
	<path style="fill:#4FA9ED;" d="M444.219,201.397c-2.597,0-5.122-1.348-6.514-3.757c-2.076-3.594-0.846-8.19,2.748-10.265
		l0.959-0.555c3.595-2.074,8.191-0.844,10.265,2.749c2.076,3.594,0.846,8.19-2.748,10.265l-0.959,0.555
		C446.786,201.072,445.493,201.397,444.219,201.397z"/>
	<path style="fill:#4FA9ED;" d="M473.876,184.274c-2.598,0-5.123-1.349-6.516-3.759c-2.074-3.595-0.842-8.191,2.752-10.265
		l0.958-0.553c3.595-2.073,8.19-0.842,10.265,2.752c2.074,3.595,0.842,8.191-2.752,10.265l-0.958,0.553
		C476.443,183.949,475.15,184.274,473.876,184.274z"/>
	<path style="fill:#4FA9ED;" d="M503.532,167.151c-2.597,0-5.122-1.348-6.514-3.757c-2.076-3.594-0.846-8.19,2.748-10.265
		l0.959-0.555c3.596-2.074,8.191-0.844,10.265,2.749c2.076,3.594,0.846,8.19-2.748,10.265l-0.959,0.555
		C506.099,166.827,504.807,167.151,503.532,167.151z"/>
	<path style="fill:#4FA9ED;" d="M156.752,251.805c-1.273,0-2.564-0.324-3.746-1.006l-0.959-0.553
		c-3.595-2.072-4.829-6.667-2.756-10.263c2.071-3.597,6.667-4.829,10.263-2.756l0.959,0.553c3.595,2.072,4.829,6.667,2.756,10.263
		C161.879,250.456,159.35,251.805,156.752,251.805z"/>
	<path style="fill:#4FA9ED;" d="M127.096,234.683c-1.275,0-2.568-0.325-3.751-1.008l-0.959-0.555
		c-3.594-2.075-4.824-6.671-2.748-10.265c2.075-3.594,6.672-4.822,10.265-2.749l0.959,0.555c3.594,2.075,4.824,6.671,2.748,10.265
		C132.218,233.335,129.692,234.683,127.096,234.683z"/>
	<path style="fill:#4FA9ED;" d="M97.439,217.56c-1.275,0-2.568-0.325-3.751-1.008l-0.959-0.555
		c-3.594-2.075-4.824-6.671-2.748-10.265c2.075-3.595,6.672-4.822,10.265-2.749l0.959,0.555c3.594,2.075,4.824,6.671,2.748,10.265
		C102.561,216.213,100.035,217.56,97.439,217.56z"/>
	<path style="fill:#4FA9ED;" d="M67.781,200.438c-1.275,0-2.568-0.325-3.751-1.008l-0.959-0.555
		c-3.594-2.075-4.824-6.671-2.748-10.265c2.075-3.595,6.672-4.821,10.265-2.749l0.959,0.555c3.594,2.075,4.824,6.671,2.748,10.265
		C72.904,199.09,70.377,200.438,67.781,200.438z"/>
	<path style="fill:#4FA9ED;" d="M38.124,183.316c-1.276,0-2.569-0.325-3.754-1.01l-0.958-0.554
		c-3.593-2.077-4.821-6.674-2.744-10.267s6.674-4.821,10.267-2.744l0.958,0.554c3.593,2.077,4.822,6.674,2.744,10.267
		C43.244,181.969,40.719,183.316,38.124,183.316z"/>
	<path style="fill:#4FA9ED;" d="M8.467,166.192c-1.273,0-2.564-0.324-3.746-1.006l-0.959-0.553
		c-3.595-2.072-4.829-6.667-2.756-10.263c2.071-3.597,6.667-4.829,10.263-2.756l0.959,0.553c3.595,2.072,4.829,6.667,2.756,10.263
		C13.593,164.844,11.065,166.192,8.467,166.192z"/>
	<path style="fill:#4FA9ED;" d="M198.913,210.064c-2.597,0-5.122-1.348-6.514-3.757l-0.555-0.959
		c-2.075-3.594-0.845-8.19,2.749-10.265c3.595-2.076,8.191-0.845,10.265,2.748l0.555,0.959c2.075,3.594,0.845,8.19-2.749,10.265
		C201.481,209.739,200.188,210.064,198.913,210.064z"/>
	<path style="fill:#4FA9ED;" d="M181.79,180.407c-2.599,0-5.126-1.35-6.517-3.762l-0.553-0.959
		c-2.073-3.596-0.84-8.191,2.756-10.263c3.597-2.072,8.192-0.84,10.263,2.756l0.553,0.959c2.073,3.596,0.839,8.191-2.756,10.263
		C184.353,180.083,183.064,180.407,181.79,180.407z"/>
	<path style="fill:#4FA9ED;" d="M164.668,150.749c-2.597,0-5.122-1.348-6.514-3.757l-0.555-0.959
		c-2.075-3.594-0.845-8.19,2.749-10.265c3.596-2.076,8.191-0.845,10.265,2.748l0.555,0.959c2.075,3.594,0.845,8.19-2.749,10.265
		C167.235,150.425,165.942,150.749,164.668,150.749z"/>
	<path style="fill:#4FA9ED;" d="M147.545,121.093c-2.597,0-5.122-1.348-6.514-3.757l-0.555-0.959
		c-2.075-3.594-0.845-8.19,2.749-10.265c3.595-2.076,8.191-0.845,10.265,2.748l0.555,0.959c2.075,3.594,0.845,8.19-2.749,10.265
		C150.112,120.768,148.82,121.093,147.545,121.093z"/>
	<path style="fill:#4FA9ED;" d="M130.423,91.436c-2.597,0-5.122-1.348-6.514-3.757l-0.555-0.959
		c-2.075-3.594-0.845-8.19,2.749-10.265c3.596-2.077,8.191-0.845,10.265,2.748l0.555,0.959c2.075,3.594,0.845,8.19-2.749,10.265
		C132.991,91.111,131.698,91.436,130.423,91.436z"/>
	<path style="fill:#4FA9ED;" d="M113.301,61.779c-2.597,0-5.122-1.348-6.514-3.757l-0.555-0.959
		c-2.075-3.594-0.845-8.19,2.749-10.265c3.595-2.077,8.19-0.845,10.265,2.748l0.555,0.959c2.075,3.594,0.845,8.19-2.749,10.265
		C115.869,61.454,114.576,61.779,113.301,61.779z"/>
</g>
<path style="fill:#F7E3AA;" d="M288.444,409.383h-65.442c-4.151,0-7.515,3.364-7.515,7.515v79.961c0,4.151,3.364,7.515,7.515,7.515
	h65.442c4.151,0,7.515-3.364,7.515-7.515v-79.961C295.959,412.748,292.594,409.383,288.444,409.383z"/>
<path style="fill:#E0C48C;" d="M288.444,409.383h-33.748c2.23,0,4.039,3.364,4.039,7.515v79.961c0,4.151-1.808,7.515-4.039,7.515
	h33.748c4.151,0,7.515-3.364,7.515-7.515v-79.961C295.959,412.748,292.594,409.383,288.444,409.383z"/>
<path style="fill:#5D5B72;" d="M383.659,316.774H127.787c-4.151,0-7.515-3.364-7.515-7.515s3.364-7.515,7.515-7.515h255.872
	c4.151,0,7.515,3.364,7.515,7.515S387.81,316.774,383.659,316.774z"/>
<path style="fill:#4FA9ED;" d="M255.723,235.317c-38.738,0-70.252,31.514-70.252,70.252v30.139c0,4.151,3.364,7.515,7.515,7.515
	h125.475c4.151,0,7.515-3.364,7.515-7.515v-30.139C325.975,266.832,294.461,235.317,255.723,235.317z"/>
<path style="fill:#2782C7;" d="M255.723,235.317c19.213,0,34.844,31.514,34.844,70.252v30.139c0,4.151-1.668,7.515-3.727,7.515
	h31.621c4.151,0,7.515-3.364,7.515-7.515v-30.139C325.975,266.832,294.461,235.317,255.723,235.317z"/>
<path style="fill:#5D5B72;" d="M420.654,504.374H90.792c-4.151,0-7.515-3.364-7.515-7.515s3.364-7.515,7.515-7.515h329.862
	c4.151,0,7.515,3.364,7.515,7.515S424.805,504.374,420.654,504.374z"/>
<path style="fill:#B4CCCB;" d="M318.461,373.71H192.986c-4.151,0-7.515,3.364-7.515,7.515v35.674c0,4.151,3.364,7.515,7.515,7.515
	h125.475c4.151,0,7.515-3.364,7.515-7.515v-35.674C325.975,377.073,322.611,373.71,318.461,373.71z"/>
<path style="fill:#9AB2B0;" d="M318.461,373.71H282.69c1.784,0,3.23,3.364,3.23,7.515v35.674c0,4.151-1.446,7.515-3.23,7.515h35.771
	c4.151,0,7.515-3.364,7.515-7.515v-35.674C325.975,377.073,322.611,373.71,318.461,373.71z"/>
<g>
</g>
<g>
</g>
<g>
</g>
<g>
</g>
<g>
</g>
<g>
</g>
<g>
</g>
<g>
</g>
<g>
</g>
<g>
</g>
<g>
</g>
<g>
</g>
<g>
</g>
<g>
</g>
<g>
</g>
</svg>
