<svg id="Capa_1" enable-background="new 0 0 512 512" height="512" viewBox="0 0 512 512" width="512" xmlns="http://www.w3.org/2000/svg"><g><g><path d="m489.348 371.159h-466.049l8.3-21.598c2.317-6.03 7.391-10.542 13.618-12.26 2.288-.631 4.5-1.463 6.003-2.538 2.647-1.889 5.879-3 9.374-3 4.01 0 7.677 1.475 10.496 3.889 2.96-8.152 10.748-13.991 19.93-13.991 5.223 0 10.001 1.899 13.698 5.031 4.293-7.819 12.597-13.112 22.143-13.112 10.859 0 20.122 6.859 23.688 16.496 3.879-5.101 9.991-8.415 16.89-8.415 3.616 0 7.031.909 10.011 2.515 2.131-6.435 8.192-11.092 15.334-11.092 7.182 0 13.253 4.677 15.365 11.152 3.01-1.647 6.465-2.576 10.132-2.576 2.283 0 4.475.374 6.526 1.03 3.93-13.435 16.324-23.254 31.032-23.254 14.698 0 27.103 9.819 31.022 23.254 2.061-.657 4.253-1.03 6.536-1.03 3.667 0 7.122.929 10.132 2.576 2.111-6.475 8.182-11.152 15.354-11.152 7.152 0 13.213 4.657 15.344 11.092 2.98-1.606 6.394-2.515 10.011-2.515 6.899 0 13.011 3.313 16.89 8.415 3.566-9.637 12.819-16.496 23.688-16.496 9.546 0 17.85 5.293 22.143 13.112 3.697-3.131 8.475-5.031 13.698-5.031 9.172 0 16.971 5.839 19.931 13.991 2.818-2.414 6.485-3.889 10.496-3.889 3.495 0 6.728 1.111 9.374 3 1.577 1.131 3.94 1.992 6.353 2.634 6.064 1.614 11.021 5.974 13.423 11.771z" fill="#b78e8e"/></g><g><path d="m469.144 504.5h-426.288c-11.158 0-20.203-9.045-20.203-20.203v-72.732h466.695v72.732c0 11.158-9.046 20.203-20.204 20.203z" fill="#e7ecf6"/></g><g><path d="m469.144 504.5h-4.041v-92.935h24.244v72.732c.001 11.158-9.045 20.203-20.203 20.203z" fill="#d8e2f1"/></g><g><path d="m7.5 371.159h497v40.407h-497z" fill="#5e54ac"/></g><g><path d="m480.256 371.159h24.244v40.407h-24.244z" fill="#524798"/></g><g><path d="m280.895 191.689c-28.724 28.724-24.703 55.725-24.703 55.725s27.001 4.021 55.725-24.703 24.703-55.725 24.703-55.725-27-4.022-55.725 24.703z" fill="#95d6a4"/></g><g><path d="m336.621 166.986s-5.193-.772-13.444.781c-1.989 10.567-7.792 26.152-23.922 42.281s-31.714 21.933-42.281 23.922c-1.553 8.252-.781 13.444-.781 13.444s27.001 4.021 55.725-24.703 24.703-55.725 24.703-55.725z" fill="#78c2a4"/></g><g><path d="m274.672 114.056c-21.543 21.543-18.527 41.794-18.527 41.794s20.251 3.016 41.794-18.527 18.527-41.794 18.527-41.794-20.251-3.017-41.794 18.527z" fill="#95d6a4"/></g><g><path d="m307.03 112.068c-21.543 21.543-41.794 18.527-41.794 18.527s-.269-1.843-.065-4.992c-11.035 16.71-9.027 30.246-9.027 30.246s20.251 3.016 41.794-18.527c15.062-15.062 18.116-29.483 18.592-36.802-2.463 3.73-5.569 7.617-9.5 11.548z" fill="#78c2a4"/></g><g><path d="m231.105 191.689c28.724 28.724 24.703 55.725 24.703 55.725s-27.001 4.021-55.725-24.703-24.703-55.725-24.703-55.725 27-4.022 55.725 24.703z" fill="#95d6a4"/></g><g><path d="m175.379 166.986s5.193-.772 13.444.781c1.989 10.567 7.792 26.152 23.922 42.281s31.714 21.933 42.281 23.922c1.553 8.252.781 13.444.781 13.444s-27.001 4.021-55.725-24.703-24.703-55.725-24.703-55.725z" fill="#78c2a4"/></g><g><path d="m237.328 114.056c21.543 21.543 18.527 41.794 18.527 41.794s-20.251 3.016-41.794-18.527-18.527-41.794-18.527-41.794 20.251-3.017 41.794 18.527z" fill="#95d6a4"/></g><g><path d="m204.97 112.068c21.543 21.543 41.794 18.527 41.794 18.527s.269-1.843.064-4.992c11.035 16.71 9.027 30.246 9.027 30.246s-20.251 3.016-41.794-18.527c-15.062-15.062-18.116-29.483-18.592-36.802 2.464 3.73 5.57 7.617 9.501 11.548z" fill="#78c2a4"/></g><g><path d="m442.196 237.489c-21.543 21.543-18.527 41.794-18.527 41.794s20.251 3.016 41.794-18.527 18.527-41.794 18.527-41.794-20.251-3.017-41.794 18.527z" fill="#95d6a4"/></g><g><path d="m474.554 235.501c-21.543 21.543-41.794 18.527-41.794 18.527s-.269-1.843-.064-4.992c-11.035 16.71-9.027 30.246-9.027 30.246s20.251 3.016 41.794-18.527c15.062-15.062 18.116-29.483 18.592-36.802-2.464 3.73-5.569 7.617-9.501 11.548z" fill="#78c2a4"/></g><g><path d="m407.217 168.948c0 30.467 16.452 42.653 16.452 42.653s16.452-12.187 16.452-42.653-16.452-42.653-16.452-42.653-16.452 12.186-16.452 42.653z" fill="#95d6a4"/></g><g><path d="m428.692 144.662c0 30.467-16.452 42.653-16.452 42.653s-1.493-1.113-3.576-3.484c4.013 19.619 15.004 27.77 15.004 27.77s16.452-12.187 16.452-42.653c0-21.301-8.038-33.657-12.877-39.169.897 4.379 1.449 9.323 1.449 14.883z" fill="#78c2a4"/></g><g><path d="m239.548 50.153c0 30.467 16.452 42.654 16.452 42.654s16.452-12.187 16.452-42.653-16.452-42.654-16.452-42.654-16.452 12.187-16.452 42.653z" fill="#95d6a4"/></g><g><path d="m261.023 25.868c0 30.467-16.452 42.653-16.452 42.653s-1.493-1.113-3.576-3.484c4.014 19.618 15.005 27.77 15.005 27.77s16.452-12.187 16.452-42.653c0-21.301-8.038-33.657-12.877-39.169.896 4.379 1.448 9.323 1.448 14.883z" fill="#78c2a4"/></g><g><path d="m404.853 237.489c21.543 21.543 18.527 41.794 18.527 41.794s-20.251 3.016-41.794-18.527-18.527-41.794-18.527-41.794 20.251-3.017 41.794 18.527z" fill="#95d6a4"/></g><g><path d="m372.495 235.501c21.543 21.543 41.794 18.527 41.794 18.527s.269-1.843.064-4.992c11.035 16.71 9.027 30.246 9.027 30.246s-20.251 3.016-41.794-18.527c-15.062-15.062-18.116-29.483-18.592-36.802 2.464 3.73 5.57 7.617 9.501 11.548z" fill="#78c2a4"/></g><g><path d="m107.147 237.489c-21.543 21.543-18.527 41.794-18.527 41.794s20.251 3.016 41.794-18.527 18.527-41.794 18.527-41.794-20.251-3.017-41.794 18.527z" fill="#95d6a4"/></g><g><path d="m139.505 235.501c-21.543 21.543-41.794 18.527-41.794 18.527s-.269-1.843-.064-4.992c-11.035 16.71-9.027 30.246-9.027 30.246s20.251 3.016 41.794-18.527c15.062-15.062 18.116-29.483 18.592-36.802-2.464 3.73-5.57 7.617-9.501 11.548z" fill="#78c2a4"/></g><g><path d="m72.168 168.948c0 30.467 16.452 42.653 16.452 42.653s16.452-12.187 16.452-42.653-16.452-42.653-16.452-42.653-16.452 12.186-16.452 42.653z" fill="#95d6a4"/></g><g><path d="m93.643 144.662c0 30.467-16.452 42.653-16.452 42.653s-1.493-1.113-3.576-3.484c4.013 19.619 15.004 27.77 15.004 27.77s16.452-12.187 16.452-42.653c0-21.301-8.038-33.657-12.877-39.169.897 4.379 1.449 9.323 1.449 14.883z" fill="#78c2a4"/></g><g><path d="m69.804 237.489c21.543 21.543 18.527 41.794 18.527 41.794s-20.251 3.016-41.794-18.527-18.527-41.794-18.527-41.794 20.251-3.017 41.794 18.527z" fill="#95d6a4"/></g><g><path d="m37.446 235.501c21.543 21.543 41.794 18.527 41.794 18.527s.269-1.843.064-4.992c11.035 16.71 9.027 30.246 9.027 30.246s-20.251 3.016-41.794-18.527c-15.062-15.062-18.116-29.483-18.592-36.802 2.464 3.73 5.569 7.617 9.501 11.548z" fill="#78c2a4"/></g><g><path d="m480.232 349.167c-2.403-5.797-7.36-10.156-13.424-11.771-2.412-.642-4.776-1.503-6.356-2.633-2.64-1.889-5.872-3-9.368-3-4.013 0-7.676 1.471-10.502 3.892-2.957-8.156-10.749-13.993-19.926-13.993-5.224 0-9.999 1.897-13.696 5.028-4.294-7.813-12.6-13.109-22.144-13.109-10.866 0-20.128 6.864-23.69 16.491-.75-.988-1.586-1.906-2.494-2.749-11.694 17.396-35.975 32.608-68.515 43.837h199.23z" fill="#aa8080"/></g><path d="m504.5 363.66h-10.141l-7.197-17.364c-3.279-7.913-10.166-13.949-18.421-16.146-2.855-.761-3.813-1.41-3.925-1.49-4.029-2.877-8.778-4.397-13.733-4.397-2.596 0-5.157.431-7.582 1.254-3.218-4.223-7.554-7.468-12.476-9.39v-29.478c9.081-.966 24.271-5.119 39.742-20.59 23.94-23.939 20.788-47.223 20.642-48.202-.486-3.265-3.049-5.827-6.313-6.313-.979-.146-24.263-3.296-48.202 20.642-2.174 2.174-4.119 4.343-5.869 6.49v-23.641c5.44-5.486 16.597-19.923 16.597-46.085 0-33.855-18.692-48.091-19.488-48.68-2.652-1.965-6.276-1.965-8.929 0-.795.589-19.488 14.824-19.488 48.68 0 25.707 10.772 40.092 16.308 45.79v23.935c-1.75-2.147-3.694-4.315-5.868-6.489-23.939-23.939-47.224-20.786-48.202-20.642-3.265.486-5.828 3.049-6.313 6.313-.146.979-3.298 24.263 20.642 48.202 15.471 15.471 30.661 19.624 39.741 20.59v27.893c-2.448.403-4.833 1.119-7.091 2.132-6.125-6.665-14.835-10.594-24.117-10.594-10.08 0-19.454 4.695-25.571 12.31-4.447-2.743-9.602-4.229-15.007-4.229-2.201 0-4.393.255-6.524.753-4.387-5.771-11.283-9.329-18.831-9.329-7.567 0-14.467 3.566-18.847 9.354-2.752-.652-5.609-.902-8.456-.719-5.478-11.107-15.955-19.098-28.081-21.508v-37.745c11.234-.767 32.185-5.414 53.721-26.951 31.039-31.039 27.005-60.879 26.818-62.134-.486-3.265-3.049-5.827-6.313-6.313-1.256-.189-31.093-4.222-62.133 26.817-4.832 4.833-8.813 9.635-12.092 14.307v-37.476c9.08-.966 24.271-5.119 39.742-20.59 23.939-23.939 20.788-47.223 20.642-48.202-.486-3.265-3.049-5.827-6.313-6.313-.977-.144-24.261-3.297-48.202 20.642-2.174 2.174-4.118 4.342-5.868 6.489v-19.15c5.49-5.593 16.452-20.003 16.452-45.938 0-33.855-18.692-48.091-19.488-48.68-2.652-1.965-6.276-1.965-8.929 0-.795.589-19.488 14.824-19.488 48.68 0 25.934 10.962 40.344 16.452 45.938v19.15c-1.75-2.147-3.694-4.315-5.868-6.489-23.94-23.939-47.224-20.787-48.202-20.642-3.265.486-5.828 3.049-6.313 6.313-.146.979-3.297 24.263 20.642 48.202 15.472 15.471 30.662 19.624 39.742 20.59v37.476c-3.279-4.671-7.26-9.474-12.092-14.307-31.04-31.039-60.877-27.004-62.133-26.817-3.265.486-5.828 3.049-6.313 6.313-.187 1.255-4.221 31.095 26.818 62.134 21.537 21.538 42.487 26.184 53.721 26.951v37.687c-12.26 2.332-22.877 10.362-28.41 21.566-2.842-.18-5.699.067-8.45.721-4.381-5.788-11.284-9.354-18.856-9.354-7.543 0-14.437 3.558-18.821 9.328-2.132-.497-4.323-.752-6.524-.752-5.406 0-10.561 1.485-15.007 4.229-6.117-7.614-15.491-12.31-25.571-12.31-9.282 0-17.992 3.929-24.117 10.594-2.159-.968-4.434-1.659-6.768-2.071v-27.954c9.081-.966 24.271-5.12 39.741-20.59 23.94-23.939 20.788-47.223 20.642-48.202-.486-3.265-3.049-5.827-6.313-6.313-.979-.146-24.263-3.296-48.202 20.642-2.174 2.174-4.118 4.342-5.868 6.489v-23.641c5.44-5.487 16.596-19.924 16.596-46.085 0-33.855-18.692-48.091-19.488-48.68-2.652-1.965-6.276-1.965-8.929 0-.795.589-19.488 14.824-19.488 48.68 0 25.708 10.772 40.093 16.308 45.791v23.935c-1.75-2.147-3.694-4.315-5.869-6.49-23.939-23.939-47.224-20.786-48.202-20.642-3.265.486-5.828 3.049-6.313 6.313-.146.979-3.298 24.263 20.642 48.202 15.471 15.471 30.662 19.625 39.742 20.59v29.348c-5.057 1.904-9.511 5.203-12.799 9.519-2.426-.823-4.987-1.254-7.583-1.254-4.955 0-9.703 1.521-13.738 4.401-.094.067-.997.68-3.633 1.407-8.524 2.352-15.487 8.632-18.625 16.8l-6.452 16.79h-10.648c-4.142 0-7.5 3.357-7.5 7.5v40.41c0 4.143 3.358 7.5 7.5 7.5h7.65v65.229c0 15.274 12.431 27.7 27.71 27.7h204.33c4.142 0 7.5-3.357 7.5-7.5s-3.358-7.5-7.5-7.5h-204.33c-7.008 0-12.71-5.697-12.71-12.7v-65.23h370.58c4.142 0 7.5-3.357 7.5-7.5s-3.358-7.5-7.5-7.5h-385.73v-25.41h86.15c4.142 0 7.5-3.357 7.5-7.5s-3.358-7.5-7.5-7.5h-66.935l4.385-11.41c1.438-3.743 4.657-6.629 8.614-7.72 3.555-.982 6.293-2.182 8.364-3.663 1.471-1.051 3.206-1.605 5.017-1.605 2.052 0 4.046.74 5.617 2.086 1.87 1.601 4.405 2.181 6.786 1.558 2.381-.627 4.303-2.381 5.143-4.694 1.965-5.414 7.142-9.051 12.88-9.051 3.23 0 6.374 1.155 8.851 3.254 1.718 1.456 3.997 2.062 6.212 1.652 2.213-.41 4.126-1.792 5.209-3.766 3.123-5.688 9.088-9.222 15.568-9.222 7.395 0 14.087 4.661 16.655 11.599.95 2.567 3.222 4.412 5.929 4.815 2.703.408 5.418-.699 7.075-2.879 2.636-3.466 6.616-5.454 10.919-5.454 2.258 0 4.489.56 6.452 1.617 1.953 1.053 4.27 1.188 6.329.368 2.061-.818 3.653-2.507 4.35-4.611 1.179-3.559 4.48-5.95 8.215-5.95 3.759 0 7.068 2.402 8.234 5.978.691 2.121 2.292 3.824 4.366 4.646 2.074.823 4.406.681 6.364-.392 3.206-1.754 7.12-2.153 10.77-.982 1.926.616 4.019.431 5.806-.519 1.786-.948 3.114-2.577 3.681-4.519 3.076-10.516 12.876-17.86 23.834-17.86 10.959 0 20.755 7.343 23.822 17.855.566 1.94 1.892 3.57 3.676 4.52 1.785.95 3.877 1.14 5.803.525 3.688-1.176 7.585-.774 10.79.979 1.958 1.071 4.29 1.214 6.364.392s3.674-2.525 4.366-4.646c1.166-3.575 4.471-5.978 8.224-5.978 3.741 0 7.046 2.392 8.225 5.95.697 2.104 2.29 3.793 4.35 4.611 2.059.817 4.376.684 6.329-.368 1.963-1.058 4.194-1.617 6.452-1.617 4.304 0 8.284 1.988 10.919 5.454 1.657 2.179 4.366 3.287 7.075 2.879 2.707-.403 4.979-2.248 5.929-4.815 2.567-6.938 9.26-11.599 16.655-11.599 6.48 0 12.445 3.533 15.568 9.222 1.083 1.974 2.996 3.355 5.209 3.766 2.214.409 4.494-.196 6.212-1.652 2.477-2.099 5.621-3.254 8.851-3.254 5.739 0 10.915 3.637 12.88 9.051.84 2.313 2.762 4.067 5.143 4.694 2.38.623 4.917.043 6.786-1.558 1.57-1.346 3.565-2.086 5.617-2.086 1.812 0 3.546.555 5.004 1.596 2.156 1.546 5.032 2.784 8.793 3.787 3.772 1.004 6.921 3.768 8.424 7.395l4.816 11.621h-341.772c-4.142 0-7.5 3.357-7.5 7.5s3.358 7.5 7.5 7.5h360.65v25.41h-61.07c-4.142 0-7.5 3.357-7.5 7.5s3.358 7.5 7.5 7.5h45.92v65.23c0 7.003-5.702 12.7-12.71 12.7h-186.75c-4.142 0-7.5 3.357-7.5 7.5s3.358 7.5 7.5 7.5h186.75c15.279 0 27.71-12.426 27.71-27.7v-65.23h7.65c4.142 0 7.5-3.357 7.5-7.5v-40.41c0-4.142-3.358-7.5-7.5-7.5zm-57-120.868c11.429-11.43 22.145-15.014 28.73-16.075-1.062 6.607-4.65 17.315-16.07 28.734-11.409 11.409-22.106 15.001-28.694 16.07 1.09-6.615 4.691-17.386 16.034-28.729zm-60.61 12.659c-11.429-11.429-15.013-22.145-16.075-28.729 6.607 1.062 17.315 4.65 28.735 16.07 11.408 11.407 15 22.105 16.069 28.693-6.615-1.089-17.386-4.69-28.729-16.034zm-100.691-58.459c17.707-17.707 34.257-21.76 42.962-22.552-.792 8.731-4.853 25.272-22.547 42.967-17.707 17.707-34.257 21.761-42.962 22.552.792-8.731 4.852-25.272 22.547-42.967zm-6.224-77.633c11.429-11.429 22.145-15.014 28.73-16.075-1.062 6.607-4.649 17.315-16.069 28.734-11.429 11.429-22.145 15.014-28.73 16.075 1.061-6.607 4.649-17.315 16.069-28.734zm-60.61 12.66c-11.429-11.429-15.013-22.144-16.075-28.729 6.607 1.062 17.315 4.65 28.735 16.07 11.429 11.429 15.013 22.144 16.075 28.729-6.607-1.063-17.315-4.651-28.735-16.07zm-13.979 85.388c-17.705-17.705-21.759-34.256-22.551-42.962 8.731.792 25.272 4.853 42.967 22.547 17.707 17.706 21.76 34.257 22.551 42.962-8.732-.792-25.273-4.852-42.967-22.547zm-92.936 25.385c11.429-11.43 22.145-15.014 28.73-16.075-1.062 6.607-4.65 17.315-16.07 28.734-11.409 11.409-22.106 15.001-28.694 16.07 1.09-6.615 4.691-17.386 16.034-28.729zm-60.61 12.659c-11.429-11.429-15.013-22.145-16.075-28.729 6.607 1.062 17.315 4.65 28.735 16.07 11.408 11.407 15 22.105 16.069 28.693-6.614-1.089-17.385-4.69-28.729-16.034zm36.776-118.184c3.921 5.423 8.956 15.531 8.956 31.682 0 16.163-5.043 26.274-8.948 31.682-3.921-5.423-8.956-15.531-8.956-31.682-.001-16.164 5.042-26.275 8.948-31.682zm167.38-118.795c3.921 5.423 8.956 15.531 8.956 31.682 0 16.163-5.043 26.274-8.948 31.682-3.921-5.423-8.956-15.531-8.956-31.682 0-16.164 5.043-26.275 8.948-31.682zm167.669 118.795c3.921 5.423 8.956 15.531 8.956 31.682 0 16.163-5.043 26.274-8.948 31.682-3.921-5.423-8.956-15.531-8.956-31.682 0-16.164 5.043-26.275 8.948-31.682z"/></g></svg>