<?xml version="1.0" encoding="iso-8859-1"?>
<!-- Generator: Adobe Illustrator 19.0.0, SVG Export Plug-In . SVG Version: 6.00 Build 0)  -->
<svg version="1.1" id="Layer_1" xmlns="http://www.w3.org/2000/svg" xmlns:xlink="http://www.w3.org/1999/xlink" x="0px" y="0px"
	 viewBox="0 0 512 512" style="enable-background:new 0 0 512 512;" xml:space="preserve">
<path style="fill:#D81942;" d="M460.547,444.541H51.453c-14.687,0-26.593-11.906-26.593-26.593v-201.9h462.279v201.9
	C487.139,432.635,475.233,444.541,460.547,444.541z"/>
<g>
	<path style="fill:#BC0C3A;" d="M458.449,216.048v176.436c0,12.905-10.462,23.367-23.367,23.367H24.861v2.097
		c0,14.687,11.906,26.593,26.593,26.593h409.093c14.687,0,26.593-11.906,26.593-26.593v-201.9H458.449z"/>
	<rect x="24.861" y="216.05" style="fill:#BC0C3A;" width="433.59" height="37.591"/>
</g>
<path style="fill:#FF395A;" d="M496.919,228.686H15.081c-4.305,0-7.795-3.49-7.795-7.795V173.14
	c0-14.687,11.906-26.593,26.593-26.593H478.12c14.687,0,26.593,11.906,26.593,26.593v47.751
	C504.713,225.196,501.224,228.686,496.919,228.686z"/>
<path style="fill:#ED2601;" d="M478.12,146.547h-28.69c14.687,0,26.593,11.906,26.593,26.593v47.751c0,4.305-3.49,7.795-7.795,7.795
	h28.69c4.305,0,7.795-3.49,7.795-7.795V173.14C504.713,158.453,492.807,146.547,478.12,146.547z"/>
<path style="fill:#CCCCCC;" d="M185.158,146.547V94.399c0-0.551,0.447-0.998,0.998-0.998h139.688c0.55,0,0.998,0.447,0.998,0.998
	v52.148h25.942V94.399c0-14.878-12.061-26.94-26.94-26.94H186.156c-14.878,0-26.94,12.061-26.94,26.94v52.148H185.158z"/>
<g>
	<path style="fill:#FFA227;" d="M144.734,277.225H112.32c-6.068,0-10.988-4.919-10.988-10.987v-59.575
		c0-6.068,4.919-10.987,10.988-10.987h32.414c6.068,0,10.988,4.919,10.988,10.987v59.575
		C155.721,272.306,150.802,277.225,144.734,277.225z"/>
	<path style="fill:#FFA227;" d="M399.68,277.225h-32.414c-6.068,0-10.987-4.919-10.987-10.987v-59.575
		c0-6.068,4.919-10.987,10.987-10.987h32.414c6.068,0,10.988,4.919,10.988,10.987v59.575
		C410.667,272.306,405.748,277.225,399.68,277.225z"/>
</g>
<g>
	<path style="fill:#F78B0B;" d="M399.68,195.675h-17.702v81.55h17.702c6.068,0,10.988-4.919,10.988-10.987v-59.575
		C410.667,200.595,405.748,195.675,399.68,195.675z"/>
	<path style="fill:#F78B0B;" d="M144.734,195.675h-17.702v81.55h17.702c6.068,0,10.988-4.919,10.988-10.987v-59.575
		C155.721,200.595,150.802,195.675,144.734,195.675z"/>
</g>
<path style="fill:#051C1B;" d="M478.121,139.26h-46.758c-4.024,0-7.286,3.262-7.286,7.286c0,4.025,3.262,7.287,7.286,7.287h46.758
	c10.645,0,19.306,8.661,19.306,19.306v47.751c0,0.281-0.228,0.509-0.509,0.509h-9.779h-69.186v-14.736v-0.001
	c0-6.297-3.202-11.861-8.064-15.148c-2.917-1.972-6.432-3.125-10.21-3.125h-32.413h-0.001c-10.076,0-18.273,8.198-18.273,18.273
	v0.001v14.736H163.008v-14.736v-0.001c0-10.076-8.197-18.273-18.273-18.273h-0.001h-32.413c-3.779,0-7.293,1.153-10.21,3.125
	c-4.862,3.287-8.064,8.851-8.064,15.148v0.001v14.736H24.861h-9.779c-0.281,0-0.509-0.228-0.509-0.509v-47.751
	c0-10.645,8.661-19.306,19.307-19.306h125.337h25.942h141.683h25.942h49.18c4.025,0,7.287-3.262,7.287-7.287
	c0-4.025-3.262-7.286-7.287-7.286H360.07V94.399c0-18.873-15.354-34.227-34.227-34.227H186.156
	c-18.873,0-34.227,15.354-34.227,34.227v44.861H33.88C15.198,139.26,0,154.458,0,173.139v47.751c0,8.316,6.766,15.082,15.082,15.082
	h2.492v102.2c0,4.025,3.262,7.287,7.287,7.287s7.286-3.262,7.286-7.287v-102.2h61.9v30.266c0,10.077,8.197,18.274,18.274,18.274
	h32.413h0.001c6.927,0,12.966-3.875,16.064-9.571c1.408-2.589,2.209-5.554,2.209-8.704v-30.266h185.985v30.266
	c0,3.149,0.801,6.115,2.209,8.704c3.098,5.696,9.137,9.571,16.064,9.571h0.001h32.413c10.077,0,18.274-8.197,18.274-18.274v-30.266
	h61.899v181.975c0,10.646-8.661,19.307-19.307,19.307H51.453c-10.645,0-19.307-8.66-19.307-19.307v-50.134
	c0-4.025-3.262-7.286-7.286-7.286s-7.287,3.262-7.287,7.286v50.134c0,18.681,15.198,33.88,33.88,33.88h409.093
	c18.681,0,33.88-15.198,33.88-33.88V235.972h2.492c8.316,0,15.082-6.766,15.082-15.082v-47.751
	C512,154.458,496.802,139.26,478.121,139.26z M319.555,139.26h-127.11v-38.572h127.11V139.26z M166.503,94.399
	c0-10.837,8.817-19.654,19.654-19.654h139.687c10.837,0,19.654,8.817,19.654,19.654v44.861h-11.369V94.399
	c0-4.568-3.717-8.285-8.285-8.285H186.156c-4.568,0-8.285,3.716-8.285,8.285v44.861h-11.369V94.399H166.503z M112.321,269.939
	c-2.041,0-3.701-1.66-3.701-3.701v-37.552v-22.023c0-2.041,1.66-3.701,3.701-3.701h32.413c2.041,0,3.701,1.66,3.701,3.701v22.023
	v37.552c0,0.765-0.234,1.477-0.633,2.068c-0.666,0.985-1.793,1.633-3.068,1.633H112.321z M403.38,266.238
	c0,2.041-1.66,3.701-3.701,3.701h-32.413c-1.275,0-2.402-0.648-3.068-1.633c-0.4-0.591-0.633-1.303-0.633-2.068v-37.552v-22.023
	c0-2.041,1.66-3.701,3.701-3.701h32.413c2.041,0,3.701,1.66,3.701,3.701v22.023V266.238z"/>
<g>
</g>
<g>
</g>
<g>
</g>
<g>
</g>
<g>
</g>
<g>
</g>
<g>
</g>
<g>
</g>
<g>
</g>
<g>
</g>
<g>
</g>
<g>
</g>
<g>
</g>
<g>
</g>
<g>
</g>
</svg>
