<svg id="Capa_1" enable-background="new 0 0 511.48 511.48" height="512" viewBox="0 0 511.48 511.48" width="512" xmlns="http://www.w3.org/2000/svg"><g><g><path d="m29.966 167.903h451.549v279.607h-451.549z" fill="#fff3de"/><path d="m455.788 167.903h25.726v279.607h-25.726z" fill="#ffe5c2"/><path d="m482.037 120.512h-452.594c-12.262 0-22.203 9.941-22.203 22.203v2.985c0 12.262 9.941 22.203 22.203 22.203h452.594c12.262 0 22.203-9.941 22.203-22.203v-2.985c0-12.262-9.941-22.203-22.203-22.203z" fill="#c38f86"/><path d="m482.037 120.512h-25.726c12.263 0 22.203 9.941 22.203 22.203v2.985c0 12.262-9.941 22.203-22.203 22.203h25.726c12.262 0 22.203-9.941 22.203-22.203v-2.985c0-12.262-9.941-22.203-22.203-22.203z" fill="#b87d72"/><path d="m482.037 447.51h-452.594c-12.262 0-22.203 9.941-22.203 22.203v2.985c0 12.262 9.941 22.203 22.203 22.203h452.594c12.262 0 22.203-9.941 22.203-22.203v-2.985c0-12.263-9.941-22.203-22.203-22.203z" fill="#c38f86"/><path d="m482.037 447.51h-25.726c12.263 0 22.203 9.941 22.203 22.203v2.985c0 12.263-9.941 22.203-22.203 22.203h25.726c12.262 0 22.203-9.941 22.203-22.203v-2.985c0-12.263-9.941-22.203-22.203-22.203z" fill="#b87d72"/><path d="m340.63 447.51h-169.78c-12.262 0-22.203 9.941-22.203 22.203v2.985c0 12.262 9.941 22.203 22.203 22.203h169.78c12.262 0 22.203-9.941 22.203-22.203v-2.985c0-12.263-9.941-22.203-22.203-22.203z" fill="#b87d72"/><path d="m340.63 447.51h-25.726c12.262 0 22.203 9.941 22.203 22.203v2.985c0 12.263-9.941 22.203-22.203 22.203h25.726c12.263 0 22.203-9.941 22.203-22.203v-2.985c0-12.263-9.941-22.203-22.203-22.203z" fill="#ab695d"/><path d="m205.739 340.5c-35.097-1.181-63.687-29.771-64.868-64.868-.91-27.033 14.151-50.634 36.471-62.116 3.65-1.878 2.277-7.44-1.828-7.429-.295.001-.589.003-.884.006-53.566.618-97.439 44.275-98.302 97.837-.907 56.245 44.871 102.021 101.115 101.114 53.562-.864 97.218-44.737 97.835-98.302.003-.295.006-.59.006-.885.012-4.105-5.551-5.478-7.429-1.828-11.482 22.32-35.083 37.381-62.116 36.471z" fill="#ffe177"/><g fill="#ffd15b"><path d="m267.86 304.03c-4.95 9.62-12.15 17.89-20.91 24.11-4.093 2.91-8.531 5.363-13.232 7.309.165-.068.335-.126.499-.196 4.991-2.113 10.003 2.818 7.943 7.831-13.33 32.444-43.379 56.476-79.26 61.135 4.75.62 9.61.9 14.54.82 53.56-.86 97.22-44.73 97.84-98.3v-.88c.02-4.109-5.55-5.479-7.42-1.829z"/><path d="m151.62 213.52c-22.32 11.48-37.38 35.08-36.47 62.11 1.18 35.1 29.77 63.69 64.86 64.87 5.23.18 10.33-.24 15.23-1.2-30.14-5.87-53.31-32.15-54.37-63.67-.91-27.03 14.15-50.63 36.47-62.11 3.65-1.88 2.28-7.45-1.83-7.43h-.88c-7.26.08-14.34.96-21.16 2.55.64 1.72.15 3.85-1.85 4.88z"/></g></g><g><path d="m481.514 419.88c4.142 0 7.5-3.357 7.5-7.5v-237.813c33.655-8.136 28-61.555-6.978-61.555h-62.819l-128.14-92.491c-21.136-15.256-49.539-15.256-70.675 0l-128.14 92.491h-62.819c-34.977 0-40.633 53.419-6.978 61.555v266.279c-33.655 8.136-28 61.555 6.978 61.555h452.594c38.947 0 38.932-62.391 0-62.391h-444.572v-264.607h436.549v236.977c0 4.143 3.358 7.5 7.5 7.5zm-466.774 52.818c-.273-8.951 4.706-17.688 14.703-17.688h115.615c-5.405 9.445-5.402 22.952 0 32.391h-115.615c-8.107 0-14.703-6.596-14.703-14.703zm482-2.985c.273 8.951-4.706 17.688-14.703 17.688h-115.615c5.405-9.445 5.402-22.952 0-32.391h115.615c8.107 0 14.703 6.596 14.703 14.703zm-156.111-14.703c19.544 0 19.524 32.391 0 32.391h-169.779c-19.544 0-19.524-32.391 0-32.391zm-310.664-294.607c-19.814.196-20.384-32.391-.522-32.391h42.037l-14.013 10.114c-3.358 2.424-4.116 7.112-1.692 10.471 2.424 3.358 7.112 4.117 10.471 1.691l30.862-22.276h275.849c4.142 0 7.5-3.357 7.5-7.5s-3.358-7.5-7.5-7.5h-255.067l111.29-80.329c15.886-11.465 37.233-11.464 53.118 0l162.935 117.605c3.27 2.36 8.111 1.578 10.471-1.691 2.424-3.358 1.667-8.047-1.692-10.471l-14.012-10.114h42.037c19.805 0 19.352 32.523-.522 32.391z"/><path d="m180.773 220.185c4.701-2.419 7.107-7.705 5.852-12.856-1.342-5.507-6.509-9.057-12.082-8.734-27.872.321-54.194 11.419-74.119 31.247-19.926 19.831-31.147 46.1-31.596 73.968-.471 29.252 10.652 56.744 31.322 77.414 41.361 41.36 110.137 41.167 151.38-.276 19.829-19.925 30.926-46.247 31.248-74.118.686-12.004-15.944-17.206-21.592-6.23-18.227 35.433-67.132 43.047-95.296 14.884-2.929-2.93-7.678-2.929-10.606-.001-2.929 2.929-2.929 7.678 0 10.606 31.214 31.216 84.002 28.076 111.416-6.497-6.776 43.324-44.453 77.23-89.377 77.955-25.172.388-48.794-9.158-66.565-26.929-17.772-17.771-27.336-41.412-26.931-66.565.724-44.928 34.637-82.608 77.957-89.381-22.812 18.089-33.375 48.8-26.144 77.056 1.027 4.014 5.113 6.438 9.125 5.406 4.013-1.026 6.434-5.112 5.406-9.125-6.798-26.571 6.25-55.296 30.602-67.824z"/><path d="m411.553 222.161c0-4.143-3.358-7.5-7.5-7.5h-66.19c-4.142 0-7.5 3.357-7.5 7.5s3.358 7.5 7.5 7.5h66.19c4.142 0 7.5-3.357 7.5-7.5z"/><path d="m238.169 214.83c-4.142 0-7.5 3.357-7.5 7.5v9.243h-9.243c-4.142 0-7.5 3.357-7.5 7.5s3.358 7.5 7.5 7.5h9.243v9.243c0 4.143 3.358 7.5 7.5 7.5s7.5-3.357 7.5-7.5v-9.243h9.243c4.142 0 7.5-3.357 7.5-7.5s-3.358-7.5-7.5-7.5h-9.243v-9.243c0-4.142-3.358-7.5-7.5-7.5z"/><circle cx="255.74" cy="49.697" r="7.508"/><circle cx="338.069" cy="292.695" r="7.508"/><circle cx="380.696" cy="292.695" r="7.508"/><circle cx="423.324" cy="292.695" r="7.508"/><circle cx="338.069" cy="338.661" r="7.508"/><circle cx="380.696" cy="338.661" r="7.508"/><circle cx="423.324" cy="338.661" r="7.508"/><circle cx="338.069" cy="382.562" r="7.508"/><circle cx="380.696" cy="382.562" r="7.508"/></g></g></svg>