<svg id="Capa_1" enable-background="new 0 0 512 512" height="512" viewBox="0 0 512 512" width="512" xmlns="http://www.w3.org/2000/svg"><g><path d="m25.191 226.37h461.618c9.584 0 17.354-7.77 17.354-17.354v-77.725c0-9.584-7.77-17.354-17.354-17.354h-461.618c-9.584 0-17.354 7.77-17.354 17.354v77.725c0 9.585 7.77 17.354 17.354 17.354z" fill="#b16e3d"/><path d="m25.191 454.805h461.618c9.584 0 17.354-7.77 17.354-17.354v-77.725c0-9.584-7.77-17.354-17.354-17.354h-461.618c-9.584 0-17.354 7.77-17.354 17.354v77.725c0 9.585 7.77 17.354 17.354 17.354z" fill="#b16e3d"/><g><g><g><g><g><path d="m40.218 484.161v-398.634c0-3.217.987-6.357 2.828-8.995l45.199-64.769c3.974-5.694 12.403-5.694 16.376 0l45.2 64.769c1.841 2.638 2.828 5.778 2.828 8.995v398.633c0 11.233-9.106 20.339-20.339 20.339h-71.753c-11.233.001-20.339-9.105-20.339-20.338z" fill="#ce9875"/></g><path d="m149.822 76.532-45.2-64.769c-3.974-5.694-12.403-5.694-16.376 0l-24.49 35.093 20.71 29.676c1.841 2.638 2.828 5.778 2.828 8.995v398.633c0 11.233-9.106 20.339-20.339 20.339h65.356c11.233 0 20.339-9.106 20.339-20.339v-398.633c.001-3.217-.987-6.356-2.828-8.995z" fill="#c6865c"/></g></g></g><g><g><g><g><path d="m199.821 484.161v-398.634c0-3.217.987-6.357 2.828-8.995l45.199-64.769c3.974-5.694 12.403-5.694 16.376 0l45.2 64.769c1.841 2.638 2.828 5.778 2.828 8.995v398.633c0 11.233-9.106 20.339-20.339 20.339h-71.755c-11.231.001-20.337-9.105-20.337-20.338z" fill="#ce9875"/></g><path d="m309.425 76.532-45.2-64.769c-3.974-5.694-12.403-5.694-16.376 0l-24.49 35.093 20.71 29.676c1.841 2.638 2.828 5.778 2.828 8.995v398.633c0 11.233-9.106 20.339-20.339 20.339h65.356c11.233 0 20.339-9.106 20.339-20.339v-398.633c0-3.217-.987-6.356-2.828-8.995z" fill="#c6865c"/></g></g></g><g><g><g><g><path d="m359.423 484.161v-398.634c0-3.217.987-6.357 2.828-8.995l45.199-64.769c3.974-5.694 12.403-5.694 16.376 0l45.2 64.769c1.841 2.638 2.828 5.778 2.828 8.995v398.633c0 11.233-9.106 20.339-20.339 20.339h-71.755c-11.231.001-20.337-9.105-20.337-20.338z" fill="#ce9875"/></g><path d="m469.027 76.532-45.2-64.769c-3.974-5.694-12.403-5.694-16.376 0l-24.49 35.093 20.71 29.676c1.841 2.638 2.828 5.778 2.828 8.995v398.633c0 11.233-9.106 20.339-20.339 20.339h65.356c11.233 0 20.339-9.106 20.339-20.339v-398.633c.001-3.217-.987-6.356-2.828-8.995z" fill="#c6865c"/></g></g></g></g><g><g><circle cx="415.639" cy="398.05" fill="#f2f9ff" r="18.657"/></g></g><g><g><circle cx="415.639" cy="170.154" fill="#f2f9ff" r="18.657"/></g></g><g><g><circle cx="256" cy="398.05" fill="#f2f9ff" r="18.657"/></g></g><g><g><circle cx="256" cy="170.154" fill="#f2f9ff" r="18.657"/></g></g><g><g><circle cx="96.434" cy="398.05" fill="#f2f9ff" r="18.657"/></g></g><g><g><g><circle cx="96.434" cy="170.154" fill="#f2f9ff" r="18.657"/></g></g><g><path d="m486.809 233.87c13.704 0 24.854-11.15 24.854-24.854v-77.725c0-13.704-11.15-24.854-24.854-24.854h-7.453v-20.909c0-4.777-1.445-9.372-4.178-13.287l-11.725-16.801c-2.371-3.398-7.046-4.227-10.443-1.858-3.397 2.37-4.229 7.046-1.858 10.443l11.725 16.802c.967 1.386 1.479 3.012 1.479 4.702v398.633c0 7.079-5.759 12.839-12.839 12.839h-71.754c-7.08 0-12.839-5.76-12.839-12.839v-398.634c0-1.69.511-3.316 1.479-4.703l45.199-64.77c.99-1.418 3.083-1.422 4.075 0l13.467 19.297c2.372 3.398 7.046 4.229 10.443 1.858 3.397-2.37 4.229-7.046 1.858-10.443l-13.467-19.296c-6.952-9.963-21.727-9.96-28.677 0l-45.199 64.769c-2.734 3.916-4.179 8.511-4.179 13.288v20.909h-32.169v-20.909c0-4.777-1.445-9.372-4.178-13.287l-45.2-64.77c-6.952-9.963-21.727-9.96-28.677 0l-45.2 64.769c-2.734 3.916-4.179 8.511-4.179 13.288v20.909h-32.169v-20.909c0-4.777-1.445-9.372-4.178-13.287l-45.2-64.77c-6.952-9.963-21.727-9.96-28.677 0l-45.2 64.77c-2.733 3.916-4.178 8.511-4.178 13.287v20.909h-7.527c-13.704 0-24.854 11.15-24.854 24.854v77.725c0 13.704 11.15 24.854 24.854 24.854h7.527v32.634c0 4.143 3.358 7.5 7.5 7.5s7.5-3.357 7.5-7.5v-180.976c0-1.69.511-3.317 1.479-4.703l45.2-64.77c.99-1.418 3.083-1.422 4.075 0l45.2 64.77c.967 1.386 1.479 3.012 1.479 4.702v398.633c0 7.079-5.759 12.839-12.839 12.839h-71.755c-7.08 0-12.839-5.76-12.839-12.839v-182.581c0-4.143-3.358-7.5-7.5-7.5s-7.5 3.357-7.5 7.5v33.293h-7.527c-13.704 0-24.854 11.15-24.854 24.854v77.725c0 13.704 11.15 24.854 24.854 24.854h7.527v21.856c0 15.351 12.488 27.839 27.839 27.839h71.754c15.351 0 27.839-12.488 27.839-27.839v-21.856h32.169v21.856c0 15.351 12.488 27.839 27.839 27.839h71.754c15.351 0 27.839-12.488 27.839-27.839v-21.856h32.169v21.856c0 15.351 12.488 27.839 27.839 27.839h71.754c15.351 0 27.839-12.488 27.839-27.839v-21.856h7.453c13.704 0 24.854-11.15 24.854-24.854v-77.725c0-13.704-11.15-24.854-24.854-24.854h-7.453v-101.002zm-461.618-15c-5.433 0-9.854-4.42-9.854-9.854v-77.725c0-5.434 4.42-9.854 9.854-9.854h7.527v97.432h-7.527zm0 228.435c-5.433 0-9.854-4.42-9.854-9.854v-77.725c0-5.434 4.42-9.854 9.854-9.854h7.527v97.432h-7.527zm294.562-213.435h32.169v101.002h-32.169zm32.17-112.432v97.432h-32.169v-97.432zm-191.772 112.432h32.169v101.002h-32.169zm32.169-112.432v97.432h-32.169v-97.432zm-32.169 325.867v-97.432h32.169v97.432zm144.602 36.856c0 7.079-5.759 12.839-12.839 12.839h-71.754c-7.08 0-12.839-5.76-12.839-12.839v-398.633c0-1.69.511-3.316 1.479-4.703l45.199-64.77c.99-1.418 3.083-1.422 4.075 0l45.2 64.77c.967 1.386 1.479 3.012 1.479 4.702zm15-36.856v-97.432h32.169v97.432zm167.056-325.867c5.433 0 9.854 4.42 9.854 9.854v77.725c0 5.434-4.421 9.854-9.854 9.854h-7.453v-97.432h7.453zm0 228.435c5.433 0 9.854 4.42 9.854 9.854v77.725c0 5.434-4.421 9.854-9.854 9.854h-7.453v-97.432h7.453z"/><path d="m415.64 371.892c-14.423 0-26.157 11.735-26.157 26.158s11.734 26.157 26.157 26.157 26.157-11.734 26.157-26.157-11.735-26.158-26.157-26.158zm0 37.315c-6.152 0-11.157-5.005-11.157-11.156 0-6.152 5.005-11.157 11.157-11.157 6.151 0 11.156 5.005 11.156 11.157 0 6.151-5.005 11.156-11.156 11.156z"/><path d="m415.64 143.997c-14.423 0-26.157 11.735-26.157 26.158s11.734 26.157 26.157 26.157 26.157-11.734 26.157-26.157c-.001-14.424-11.735-26.158-26.157-26.158zm0 37.314c-6.152 0-11.157-5.005-11.157-11.156 0-6.152 5.005-11.157 11.157-11.157 6.151 0 11.156 5.005 11.156 11.157 0 6.151-5.005 11.156-11.156 11.156z"/><path d="m256 371.892c-14.423 0-26.157 11.735-26.157 26.158s11.734 26.157 26.157 26.157 26.157-11.734 26.157-26.157-11.734-26.158-26.157-26.158zm0 37.315c-6.151 0-11.156-5.005-11.156-11.156 0-6.152 5.005-11.157 11.156-11.157s11.156 5.005 11.156 11.157c0 6.151-5.005 11.156-11.156 11.156z"/><path d="m256 143.997c-14.423 0-26.157 11.735-26.157 26.158s11.734 26.157 26.157 26.157 26.157-11.734 26.157-26.157c0-14.424-11.734-26.158-26.157-26.158zm0 37.314c-6.151 0-11.156-5.005-11.156-11.156 0-6.152 5.005-11.157 11.156-11.157s11.156 5.005 11.156 11.157c0 6.151-5.005 11.156-11.156 11.156z"/><path d="m96.434 424.207c14.423 0 26.157-11.734 26.157-26.157s-11.734-26.158-26.157-26.158-26.157 11.735-26.157 26.158 11.734 26.157 26.157 26.157zm0-37.314c6.152 0 11.157 5.005 11.157 11.157 0 6.151-5.005 11.156-11.157 11.156-6.151 0-11.156-5.005-11.156-11.156 0-6.152 5.005-11.157 11.156-11.157z"/><path d="m96.434 196.311c14.423 0 26.157-11.734 26.157-26.157s-11.734-26.158-26.157-26.158-26.157 11.735-26.157 26.158c.001 14.423 11.734 26.157 26.157 26.157zm0-37.314c6.152 0 11.157 5.005 11.157 11.157 0 6.151-5.005 11.156-11.157 11.156-6.151 0-11.156-5.005-11.156-11.156 0-6.152 5.005-11.157 11.156-11.157z"/></g></g></g></svg>