<svg height="512" viewBox="0 0 128 128" width="512" xmlns="http://www.w3.org/2000/svg"><g><g><g fill="#b9dd39"><path d="m70.894 42.483-6.894 6.894-6.894-6.894a18 18 0 0 1 0-25.456l6.894-6.894 6.894 6.894a18 18 0 0 1 0 25.456z"/><path d="m55.625 62.682v6.447h-6.447a11.9 11.9 0 0 1 -11.9-11.9v-6.449h6.447a11.9 11.9 0 0 1 11.9 11.902z"/><path d="m72.375 62.682v6.447h6.447a11.9 11.9 0 0 0 11.9-11.9v-6.449h-6.445a11.9 11.9 0 0 0 -11.902 11.902z"/></g><path d="m82.134 59.37a1.749 1.749 0 0 0 -2.475 0l-13.909 13.909v-37.886a1.75 1.75 0 0 0 -3.5 0v37.886l-13.909-13.909a1.75 1.75 0 0 0 -2.475 2.475l16.384 16.383v10.382a1.75 1.75 0 1 0 3.5 0v-10.382l16.384-16.383a1.751 1.751 0 0 0 0-2.475z" fill="#85a500"/><path d="m126.25 117.867a11.625 11.625 0 0 0 -11.625-11.625h-3.625l-1.11-2.837a11.624 11.624 0 0 0 -10.826-7.391h-8.439a22.222 22.222 0 0 0 -16.56-7.4h-20.13a22.222 22.222 0 0 0 -16.56 7.4h-8.439a11.624 11.624 0 0 0 -10.826 7.391l-1.11 2.837h-3.625a11.625 11.625 0 0 0 -11.625 11.625z" fill="#c86e59"/><path d="m103.406 28.494h8v38.233h-8z" fill="#5b5555"/><path d="m122.219 17.882h-29.625v7.61l10.812 3.002h8l10.813-3.002z" fill="#463f3f"/><path d="m88.562 66.727v12.873a35.453 35.453 0 0 0 4.032 16.414h6.47a11.624 11.624 0 0 1 10.826 7.391l1.11 2.837h3.179a35.48 35.48 0 0 0 12.071-26.642v-12.873z" fill="#fff5f5"/><path d="m113.767 96.366a1.749 1.749 0 0 1 -1.463-2.708 25.569 25.569 0 0 0 3.752-9.31 1.75 1.75 0 1 1 3.444.652 29.052 29.052 0 0 1 -4.262 10.578 1.746 1.746 0 0 1 -1.471.788z" fill="#efe2dd"/></g><g><path d="m32 116.117h-6.522a1.75 1.75 0 1 0 0 3.5h6.522a1.75 1.75 0 1 0 0-3.5z"/><path d="m128 66.727a1.749 1.749 0 0 0 -1.75-1.75h-13.094v-35.152l9.531-2.647a1.752 1.752 0 0 0 1.282-1.687v-7.609a1.75 1.75 0 0 0 -1.75-1.75h-29.625a1.749 1.749 0 0 0 -1.75 1.75v7.609a1.752 1.752 0 0 0 1.281 1.687l9.531 2.647v35.152h-11.608a13.567 13.567 0 0 0 2.426-7.749v-6.448a1.751 1.751 0 0 0 -1.75-1.75h-6.447a13.667 13.667 0 0 0 -13.652 13.653v5.717l-4.875 4.879v-23.179l6.382-6.382a19.772 19.772 0 0 0 0-27.93l-6.895-6.888a1.748 1.748 0 0 0 -2.474 0l-6.895 6.89a19.772 19.772 0 0 0 0 27.93l6.382 6.38v23.179l-4.875-4.879v-5.717a13.667 13.667 0 0 0 -13.652-13.653h-6.447a1.751 1.751 0 0 0 -1.75 1.75v6.448a13.667 13.667 0 0 0 13.652 13.651h5.722l7.35 7.349v8.632h-8.315a24 24 0 0 0 -17.325 7.4h-7.674a13.3 13.3 0 0 0 -12.457 8.5l-.673 1.724h-2.431a13.39 13.39 0 0 0 -13.375 13.383 1.749 1.749 0 0 0 1.75 1.75h10.375a1.75 1.75 0 1 0 0-3.5h-8.47a9.891 9.891 0 0 1 9.72-8.125h3.625a1.75 1.75 0 0 0 1.63-1.112l1.109-2.837a9.815 9.815 0 0 1 9.2-6.279h8.439a1.75 1.75 0 0 0 1.3-.583 20.5 20.5 0 0 1 15.257-6.821h20.13a20.5 20.5 0 0 1 15.256 6.821 1.75 1.75 0 0 0 1.3.583h8.438a9.817 9.817 0 0 1 9.2 6.279l1.109 2.837a1.75 1.75 0 0 0 1.63 1.112h3.625a9.891 9.891 0 0 1 9.72 8.125h-78.99a1.75 1.75 0 1 0 0 3.5h80.9a1.749 1.749 0 0 0 1.75-1.75 13.386 13.386 0 0 0 -9.987-12.923 37.217 37.217 0 0 0 9.984-25.344zm-33.656-47.095h26.125v4.529l-9.3 2.583h-7.524l-9.3-2.583zm10.812 10.612h4.5v34.733h-4.5zm-31.031 32.439a10.165 10.165 0 0 1 10.152-10.153h4.7v4.7a10.163 10.163 0 0 1 -10.155 10.149h-2.222l5.534-5.534a1.75 1.75 0 0 0 -2.475-2.475l-5.534 5.53zm-15.782-21.438a16.267 16.267 0 0 1 0-22.98l5.657-5.658 5.657 5.658a16.267 16.267 0 0 1 0 22.98l-3.907 3.907v-9.759a1.75 1.75 0 0 0 -3.5 0v9.759zm-9.165 26.134a10.163 10.163 0 0 1 -10.152-10.151v-4.7h4.7a10.165 10.165 0 0 1 10.149 10.155v2.217l-5.534-5.53a1.75 1.75 0 0 0 -2.475 2.475l5.534 5.534zm75.322 12.221a33.725 33.725 0 0 1 -11.007 24.891h-1.3l-.674-1.724a13.3 13.3 0 0 0 -12.457-8.5h-5.383a33.639 33.639 0 0 1 -3.019-9.843 1.751 1.751 0 0 0 -3.465.5 37.1 37.1 0 0 0 1.778 7.146 24 24 0 0 0 -14.908-5.21h-8.315v-8.632l7.35-7.349h5.722a13.558 13.558 0 0 0 7.99-2.606v6.352a1.75 1.75 0 0 0 3.5 0v-6.148h34.188z"/><path d="m112.81 96.081a1.752 1.752 0 0 0 2.423-.507 29.052 29.052 0 0 0 4.267-10.574 1.75 1.75 0 1 0 -3.439-.648 25.569 25.569 0 0 1 -3.752 9.31 1.751 1.751 0 0 0 .501 2.419z"/></g></g></svg>