<svg id="flat" height="512" viewBox="0 0 512 512" width="512" xmlns="http://www.w3.org/2000/svg"><rect fill="#c78640" height="424" rx="16" width="368" x="72" y="64"/><path d="m104 96h304v360h-304z" fill="#e0edff"/><path d="m210.79427 128h90.41146a18.79427 18.79427 0 0 0 18.79427-18.79427 18.79418 18.79418 0 0 0 -2.67832-9.66957l-37.08976-61.81629a28.259 28.259 0 0 0 -24.23192-13.71987 28.259 28.259 0 0 0 -24.2319 13.71987l-37.08978 61.81627a18.79418 18.79418 0 0 0 -2.67832 9.66957 18.79427 18.79427 0 0 0 18.79427 18.79429z" fill="#ffc431"/><path d="m248 48h16v32h-16z" fill="#ffa100"/><circle cx="256" cy="96" fill="#ffa100" r="8"/><g fill="#bed3f7"><path d="m240 368h24v16h-24z"/><path d="m280 368h88v16h-88z"/><path d="m312 400h24v16h-24z"/><path d="m240 400h56v16h-56z"/><path d="m240 272h24v16h-24z"/><path d="m280 272h88v16h-88z"/><path d="m312 304h24v16h-24z"/><path d="m240 304h56v16h-56z"/><path d="m144 168h64v64h-64z"/></g><path d="m156.402 172h79.196v16h-79.196z" fill="#f5714f" transform="matrix(.707 -.707 .707 .707 -69.872 191.325)"/><path d="m240 176h24v16h-24z" fill="#bed3f7"/><path d="m280 176h88v16h-88z" fill="#bed3f7"/><path d="m312 208h24v16h-24z" fill="#bed3f7"/><path d="m240 208h56v16h-56z" fill="#bed3f7"/><path d="m144 264h64v64h-64z" fill="#bed3f7"/><path d="m156.402 268h79.196v16h-79.196z" fill="#f5714f" transform="matrix(.707 -.707 .707 .707 -137.757 219.446)"/><path d="m144 360h64v64h-64z" fill="#bed3f7"/><path d="m156.402 364h79.196v16h-79.196z" fill="#f5714f" transform="matrix(.707 -.707 .707 .707 -205.642 247.567)"/></svg>