<?xml version="1.0" encoding="iso-8859-1"?>
<!-- Generator: Adobe Illustrator 19.0.0, SVG Export Plug-In . SVG Version: 6.00 Build 0)  -->
<svg version="1.1" id="Capa_1" xmlns="http://www.w3.org/2000/svg" xmlns:xlink="http://www.w3.org/1999/xlink" x="0px" y="0px"
	 viewBox="0 0 512 512" style="enable-background:new 0 0 512 512;" xml:space="preserve">
<path style="fill:#FF5F5F;" d="M374.768,461.927l-32.819-221.601c-2.942-19.873-20.312-34.859-40.401-34.859h-26.8V160.79
	c0-4.143-3.357-7.5-7.5-7.5h-66c-4.143,0-7.5,3.357-7.5,7.5v44.677h-26.8c-20.09,0-37.459,14.986-40.402,34.859l-32.82,221.601
	c-1.862,12.574,1.832,25.305,10.136,34.93C112.165,506.48,124.218,512,136.929,512h194.636c12.711,0,24.764-5.52,33.067-15.144
	C372.936,487.231,376.63,474.501,374.768,461.927z"/>
<g>
	<path style="fill:#E24B4B;" d="M263.331,160.79v44.677h11.416V160.79c0-4.143-3.357-7.5-7.5-7.5h-9.302
		C260.92,153.29,263.331,156.647,263.331,160.79z"/>
	<path style="fill:#E24B4B;" d="M374.768,461.927l-32.819-221.601c-2.942-19.873-20.312-34.859-40.401-34.859h-18.97
		c14.427,0,26.9,14.986,29.013,34.859l23.568,221.601c1.337,12.574-1.316,25.305-7.279,34.93C321.916,506.48,313.26,512,304.133,512
		h27.432c12.711,0,24.764-5.52,33.067-15.144C372.936,487.231,376.63,474.501,374.768,461.927z"/>
</g>
<path style="fill:#434259;" d="M189.632,66.501h-51.357c-3.223,0-6.086,2.06-7.11,5.115l-35.1,104.695
	c-0.632,1.887-0.489,3.947,0.398,5.728c0.887,1.781,2.445,3.137,4.331,3.769l3.623,1.213c2.804,0.942,5.688,1.41,8.562,1.41
	c4.087,0,8.15-0.947,11.918-2.822c6.412-3.191,11.198-8.689,13.476-15.48l21.95-65.473h29.309c4.143,0,7.5-3.357,7.5-7.5V74.001
	C197.132,69.858,193.774,66.501,189.632,66.501z"/>
<path style="fill:#D1E5E3;" d="M379.54,98.245h-77.655c-4.143,0-7.5,3.357-7.5,7.5v23.301c0,4.143,3.357,7.5,7.5,7.5h77.655
	c4.143,0,7.5-3.357,7.5-7.5v-23.301C387.04,101.603,383.683,98.245,379.54,98.245z"/>
<path style="fill:#5D5B72;" d="M413.565,100.803l-31.707-10.304c-2.286-0.742-4.784-0.347-6.727,1.065
	c-1.942,1.411-3.092,3.667-3.092,6.067v39.53c0,2.4,1.149,4.656,3.092,6.067c1.298,0.943,2.844,1.433,4.409,1.433
	c0.777,0,1.56-0.121,2.317-0.367l31.707-10.304c3.09-1.004,5.182-3.884,5.182-7.133v-18.923
	C418.747,104.687,416.655,101.807,413.565,100.803z"/>
<path style="fill:#4FA9ED;" d="M234.242,81.501c-4.143,0-7.5-3.357-7.5-7.5V52.596c0-4.143,3.357-7.5,7.5-7.5s7.5,3.357,7.5,7.5
	v21.405C241.742,78.144,238.385,81.501,234.242,81.501z"/>
<circle style="fill:#E1EEF7;" cx="234.25" cy="368.94" r="86.66"/>
<path style="fill:#5D5B72;" d="M301.885,86.503h-15.532V74.001c0-4.143-3.357-7.5-7.5-7.5h-89.221c-4.143,0-7.5,3.357-7.5,7.5
	v86.789c0,4.143,3.357,7.5,7.5,7.5h89.221c4.143,0,7.5-3.357,7.5-7.5v-12.502h15.532c4.143,0,7.5-3.357,7.5-7.5V94.003
	C309.385,89.86,306.027,86.503,301.885,86.503z"/>
<path style="fill:#FF5F5F;" d="M267.207,0h-65.931c-8.778,0-15.92,7.142-15.92,15.92c0,8.777,7.142,15.919,15.92,15.919h6.095
	l5.19,20.329c0.848,3.321,3.839,5.645,7.267,5.645h28.827c3.428,0,6.419-2.323,7.267-5.645l5.19-20.329h6.095
	c8.778,0,15.92-7.142,15.92-15.919C283.127,7.142,275.985,0,267.207,0z"/>
<g>
	<path style="fill:#9AB2B0;" d="M263.105,354.746h-6.711c-4.143,0-7.5-3.357-7.5-7.5s3.357-7.5,7.5-7.5h6.711
		c2.532,0,4.593-2.061,4.593-4.593V324.06c0-4.143,3.357-7.5,7.5-7.5s7.5,3.357,7.5,7.5v11.093
		C282.698,345.957,273.909,354.746,263.105,354.746z"/>
	<path style="fill:#9AB2B0;" d="M212.1,354.746h-6.711c-10.804,0-19.593-8.789-19.593-19.593V324.06c0-4.143,3.357-7.5,7.5-7.5
		s7.5,3.357,7.5,7.5v11.093c0,2.532,2.061,4.593,4.593,4.593h6.711c4.143,0,7.5,3.357,7.5,7.5S216.242,354.746,212.1,354.746z"/>
	<path style="fill:#9AB2B0;" d="M275.198,421.305c-4.143,0-7.5-3.357-7.5-7.5v-11.093c0-2.532-2.061-4.593-4.593-4.593h-6.711
		c-4.143,0-7.5-3.357-7.5-7.5s3.357-7.5,7.5-7.5h6.711c10.804,0,19.593,8.789,19.593,19.593v11.093
		C282.698,417.947,279.341,421.305,275.198,421.305z"/>
	<path style="fill:#9AB2B0;" d="M193.296,421.305c-4.143,0-7.5-3.357-7.5-7.5v-11.093c0-10.804,8.789-19.593,19.593-19.593h6.711
		c4.143,0,7.5,3.357,7.5,7.5s-3.357,7.5-7.5,7.5h-6.711c-2.532,0-4.593,2.061-4.593,4.593v11.093
		C200.796,417.947,197.438,421.305,193.296,421.305z"/>
	<path style="fill:#9AB2B0;" d="M276.247,376.435h-20.95c-4.143,0-7.5-3.357-7.5-7.5s3.357-7.5,7.5-7.5h20.95
		c4.143,0,7.5,3.357,7.5,7.5S280.39,376.435,276.247,376.435z"/>
	<path style="fill:#9AB2B0;" d="M213.197,376.435h-20.95c-4.143,0-7.5-3.357-7.5-7.5s3.357-7.5,7.5-7.5h20.95
		c4.143,0,7.5,3.357,7.5,7.5S217.34,376.435,213.197,376.435z"/>
</g>
<path style="fill:#B4CCCB;" d="M234.247,321.818c-15.743,0-28.552,12.809-28.552,28.552v37.125
	c0,15.744,12.809,28.553,28.552,28.553s28.552-12.809,28.552-28.553V350.37C262.799,334.627,249.99,321.818,234.247,321.818z"/>
<path style="fill:#434259;" d="M316.168,415.325c7.79-13.701,12.245-29.534,12.245-46.39c0-51.922-42.241-94.163-94.162-94.163
	c-34.513,0-64.744,18.668-81.139,46.433c-0.15,0.207-0.29,0.424-0.421,0.65c-0.111,0.192-0.208,0.389-0.3,0.587
	c-7.826,13.725-12.303,29.595-12.303,46.493c0,51.922,42.241,94.163,94.163,94.163c34.55,0,64.807-18.708,81.191-46.522
	c0.126-0.181,0.258-0.357,0.37-0.551C315.944,415.795,316.062,415.561,316.168,415.325z M234.251,289.771
	c43.65,0,79.162,35.513,79.162,79.163c0,11.734-2.586,22.87-7.187,32.896l-136.434-78.764
	C184.159,302.935,207.689,289.771,234.251,289.771z M234.251,448.098c-43.65,0-79.163-35.513-79.163-79.163
	c0-11.732,2.585-22.864,7.184-32.889l136.433,78.763C284.338,434.937,260.81,448.098,234.251,448.098z"/>
<g>
</g>
<g>
</g>
<g>
</g>
<g>
</g>
<g>
</g>
<g>
</g>
<g>
</g>
<g>
</g>
<g>
</g>
<g>
</g>
<g>
</g>
<g>
</g>
<g>
</g>
<g>
</g>
<g>
</g>
</svg>
