<svg height="512" viewBox="0 0 512 512" width="512" xmlns="http://www.w3.org/2000/svg"><g id="Flat"><path d="m448 104a23.99527 23.99527 0 0 0 18.28 23.3 64.019 64.019 0 0 0 18.12988 119.65 286.02218 286.02218 0 0 1 -97.69988 173.16 40.111 40.111 0 0 0 -15.22-15.04 24.00024 24.00024 0 1 0 -28.42994-4.07 40.027 40.027 0 0 0 -23.35006 15.4 64.02738 64.02738 0 0 0 -93.94 70.59q-11.985 1.005-24.23 1.01a177.52875 177.52875 0 0 1 -177.54-177.54 285.64344 285.64344 0 0 1 88.66-207.21 40.00513 40.00513 0 0 0 79.3-5.32 64.0204 64.0204 0 0 0 99.63007-73.32q9.36-.6 18.86987-.61h177.54006v62.12a23.99309 23.99309 0 0 0 -40 17.88z" fill="#7ab355"/><path d="m24 464 24 24 344-368z" fill="#699949"/><path d="m422.402 182.887h40.167v16h-40.167z" fill="#4f5761" transform="matrix(.707 -.707 .707 .707 -5.377 368.794)"/><path d="m445.03 205.515h40.167v16h-40.167z" fill="#4f5761" transform="matrix(.707 -.707 .707 .707 -14.749 391.421)"/><g fill="#68737f"><path d="m416.124 213.54607a24.001 24.001 0 1 1 26.40188 26.32254z"/><path d="m392 192h16v41.373h-16z"/><path d="m336 248h41.373v16h-41.373z"/><path d="m366.343 210.059h16v40.568h-16z" transform="matrix(.707 -.707 .707 .707 -53.235 332.167)"/><path d="m392 278.627h16v41.373h-16z"/><path d="m422.627 248h41.373v16h-41.373z"/><path d="m420.485 268.201h16v32.568h-16z" transform="matrix(.707 -.707 .707 .707 -75.661 386.309)"/></g><path d="m423.99927 279.99914c-11.81572 11.81572-33.69365 25.34976-51.58344 14.89874a32.81827 32.81827 0 0 1 -11.31371-11.31371c-10.451-17.88979 3.083-39.76772 14.89874-51.58344s33.69366-25.34973 51.58345-14.89873a32.81873 32.81873 0 0 1 11.31369 11.31369c10.451 17.88979-3.083 39.76768-14.89873 51.58345z" fill="#e04446"/><path d="m438.898 228.41569-66.48219 66.48219a32.81827 32.81827 0 0 1 -11.31371-11.31371l66.48221-66.48217a32.81873 32.81873 0 0 1 11.31369 11.31369z" fill="#d6323f"/><path d="m128 103.834h16v40.167h-16z" fill="#4f5761"/><path d="m160 103.834h16v40.167h-16z" fill="#4f5761"/><path d="m133.38192 158.57927a24.001 24.001 0 1 1 37.28179-.05611z" fill="#68737f"/><path d="m113.373 148.686h16v41.373h-16z" fill="#68737f" transform="matrix(.707 -.707 .707 .707 -84.215 135.431)"/><path d="m100.686 222.628h41.373v16h-41.373z" fill="#68737f" transform="matrix(.707 -.707 .707 .707 -127.529 153.373)"/><path d="m95.432 192h40.568v16h-40.568z" fill="#68737f"/><path d="m174.628 209.941h16v41.373h-16z" fill="#68737f" transform="matrix(.707 -.707 .707 .707 -109.588 196.686)"/><path d="m161.941 161.373h41.373v16h-41.373z" fill="#68737f" transform="matrix(.707 -.707 .707 .707 -66.274 178.745)"/><path d="m176 192h32.568v16h-32.568z" fill="#68737f"/><path d="m185.94 200c0 16.71-5.9 41.75-25.94 47.01a32.81855 32.81855 0 0 1 -16 0c-20.04-5.26-25.94-30.3-25.94-47.01s5.9-41.75 25.94-47.01a32.81855 32.81855 0 0 1 16 0c20.04 5.26 25.94 30.3 25.94 47.01z" fill="#e04446"/><path d="m160 152.99v94.02a32.81855 32.81855 0 0 1 -16 0v-94.02a32.81855 32.81855 0 0 1 16 0z" fill="#d6323f"/></g></svg>