<svg height="512pt" viewBox="0 -29 512.00025 512" width="512pt" xmlns="http://www.w3.org/2000/svg"><path d="m45.707031 237.167969-19.394531-19.394531c-35.082031-35.082032-35.082031-92.179688 0-127.277344 35.082031-35.070313 92.167969-35.097656 127.28125 0l19.394531 19.394531c5.859375 5.859375 5.859375 15.351563 0 21.210937-5.859375 5.859376-15.351562 5.859376-21.210937 0l-19.394532-19.394531c-23.410156-23.394531-61.480468-23.363281-84.859374 0-23.394532 23.394531-23.394532 61.464844 0 84.855469l19.394531 19.398438c5.859375 5.859374 5.859375 15.351562 0 21.210937s-15.351563 5.859375-21.210938-.003906zm0 0" fill="#799ce3"/><path d="m437.960938 205.34375-16.546876 16.546875c-2.96875 2.96875-6.574218 4.453125-10.394531 4.457031-3.816406-.003906-7.847656-1.488281-10.816406-4.457031-5.730469-5.726563-5.730469-15.484375 0-21.214844l16.542969-16.546875c35.214844-35.214844 35.214844-92.0625 0-127.277344-33.941406-33.941406-93.125-34.152343-127.277344 0l-16.546875 16.546876c-5.726563 5.726562-15.273437 5.9375-21.210937 0-5.730469-5.726563-5.730469-15.484376 0-21.214844l16.542968-16.546875c45.398438-45.394531 124.523438-45.183594 169.707032 0 46.878906 46.882812 46.878906 122.824219 0 169.707031zm0 0" fill="#799ce3"/><path d="m458.050781 395.628906c5.835938 10-1.367187 22.585938-12.949219 22.585938h-185.144531c-5.980469 0-11.398437-3.558594-13.773437-9.039063-2.371094-5.492187-1.257813-11.863281 2.84375-16.226562 8.078125-8.636719 49.003906-49.003907 59.882812-60.191407 2.828125-2.902343 6.710938-4.542968 10.753906-4.542968h125.4375c11.582032 0 18.785157 12.585937 12.949219 22.589844-3.898437 6.648437-6.050781 14.605468-6.050781 22.410156 0 7.808594 2.152344 15.761718 6.050781 22.414062zm0 0" fill="#485c8c"/><path d="m497 450.011719c-42.957031 0-75-35.21875-75-75 0-21.582031 9.5-41.285157 22.515625-53.320313 13.386719-13.785156 32.226563-21.679687 52.484375-21.679687 8.292969 0 15 6.707031 15 15v120c0 8.289062-6.707031 15-15 15zm0 0" fill="#6aa9ff"/><path d="m389.804688 295.925781-144.671876 144.671875c-8.699218 8.699219-19.941406 13.152344-31.398437 13.152344-11.664063-.210938-23.121094-4.453125-31.816406-13.152344l-148.492188-148.492187c-8.488281-8.484375-13.152343-19.9375-13.152343-31.820313-.210938-12.089844 4.667968-23.332031 13.152343-31.820312l144.460938-144.460938 68.730469 26.304688 96.308593 96.308594zm0 0" fill="#7ed8f6"/><path d="m416.746094 56.851562 21.214844-21.214843c46.878906 46.882812 46.878906 122.824219 0 169.707031l-16.546876 16.546875c-2.972656 2.96875-6.578124 4.453125-10.394531 4.457031-3.816406 0-7.847656-1.484375-10.820312-4.457031-5.726563-5.726563-5.726563-15.484375 0-21.214844l16.546875-16.542969c35.214844-35.214843 35.214844-92.066406 0-127.28125zm0 0" fill="#485c8c"/><path d="m389.804688 295.925781-144.671876 144.671875c-8.699218 8.699219-19.941406 13.152344-31.398437 13.152344-11.664063-.210938-23.121094-4.453125-31.816406-13.152344l-74.460938-74.457031 197.496094-197.496094 37.972656 37.972657zm0 0" fill="#6aa9ff"/><path d="m177.882812 84.007812 52.824219-52.824218 211.917969 211.917968-52.824219 52.824219zm0 0" fill="#799ce3"/><path d="m283.734375 189.859375 52.824219-52.820313 106.0625 106.0625-52.820313 52.824219zm0 0" fill="#485c8c"/><path d="m465.113281 265.589844c-2.96875 2.96875-6.574219 4.453125-10.394531 4.457031-3.816406-.003906-7.847656-1.488281-10.820312-4.457031l-239.917969-239.921875c-5.941407-5.941407-5.730469-15.484375 0-21.214844 5.9375-5.9375 15.273437-5.9375 21.210937 0l239.921875 239.921875c5.941407 5.941406 5.9375 15.273438 0 21.214844zm0 0" fill="#7ed8f6"/><path d="m465.113281 265.589844c-2.96875 2.96875-6.574219 4.453125-10.394531 4.457031-3.816406-.003906-7.847656-1.488281-10.820312-4.457031l-117.941407-117.945313 21.210938-21.214843 117.945312 117.945312c5.941407 5.941406 5.9375 15.273438 0 21.214844zm0 0" fill="#6aa9ff"/></svg>