<?xml version="1.0" encoding="iso-8859-1"?>
<!-- Generator: Adobe Illustrator 19.0.0, SVG Export Plug-In . SVG Version: 6.00 Build 0)  -->
<svg version="1.1" id="Layer_1" xmlns="http://www.w3.org/2000/svg" xmlns:xlink="http://www.w3.org/1999/xlink" x="0px" y="0px"
	 viewBox="0 0 512 512" style="enable-background:new 0 0 512 512;" xml:space="preserve">
<g>
	<g>
		<path d="M506.92,81.944L430.066,5.09c-6.771-6.773-17.753-6.772-24.528,0l-29.434,29.434
			c-23.723,23.723-27.301,60.067-10.756,87.61L181.308,306.175l-41.183-41.183c-11.033-11.034-28.894-11.035-39.927,0
			l-61.524,61.525C6.947,358.246-6.42,403.389,2.921,447.275l6.644,31.219c2.553,11.996,11.955,21.398,23.953,23.952l31.218,6.644
			c41.809,8.897,87.586-2.582,120.758-35.754l61.524-61.524c11.035-11.034,11.036-28.893,0-39.927l-41.183-41.181l184.02-184.021
			c26.845,16.199,63.315,13.541,87.631-10.776l29.434-29.434C513.694,99.699,513.694,88.718,506.92,81.944z M217.925,391.848
			l-56.96,56.959c-24.26,24.26-57.904,32.974-89.01,26.355l-28.946-6.161l-6.159-28.947c-6.886-32.348,2.966-65.621,26.352-89.009
			l56.96-56.96l36.618,36.618l-34.132,34.132c-6.773,6.773-6.773,17.754,0,24.528c6.772,6.773,17.754,6.775,24.528,0l34.132-34.132
			L217.925,391.848z M452.959,111.378c-14.46,14.46-37.865,14.461-52.327,0c-14.427-14.427-14.427-37.9,0-52.327l17.17-17.171
			l52.327,52.327L452.959,111.378z"/>
	</g>
</g>
<g>
</g>
<g>
</g>
<g>
</g>
<g>
</g>
<g>
</g>
<g>
</g>
<g>
</g>
<g>
</g>
<g>
</g>
<g>
</g>
<g>
</g>
<g>
</g>
<g>
</g>
<g>
</g>
<g>
</g>
</svg>
