<?xml version="1.0" encoding="iso-8859-1"?>
<!-- Generator: Adobe Illustrator 19.0.0, SVG Export Plug-In . SVG Version: 6.00 Build 0)  -->
<svg version="1.1" id="Capa_1" xmlns="http://www.w3.org/2000/svg" xmlns:xlink="http://www.w3.org/1999/xlink" x="0px" y="0px"
	 viewBox="0 0 511.999 511.999" style="enable-background:new 0 0 511.999 511.999;" xml:space="preserve">
<path style="fill:#5D5B72;" d="M421.3,140.793l-20.35,11.743c-11.022,6.373-23.086,10.13-35.37,11.232
	c-9.9,0.892-19.96,0.04-29.759-2.565c-1.393,16.423-1.403,33.166-0.04,49.869c1.844,22.855,6.282,45.62,13.216,67.704
	c1.052,3.367-0.381,7.024-3.447,8.777c-7.004,3.988-13.787,8.046-20.18,12.054c-15.851,9.9-29.639,19.709-42.173,29.989
	c-6.643,5.441-12.956,11.062-18.757,16.683c-18.456,17.855-33.627,37.645-45.109,58.816c-11.282,20.571-19.639,44.368-24.839,70.77
	l-0.07,0.401c-0.01,0.04-0.02,0.09-0.03,0.13c-2.725,13.637-14.95,23.396-28.617,23.396c-1.072,0-2.154-0.06-3.236-0.18
	c-14.849-1.703-25.841-14.338-25.841-28.937c0-1.092,0.06-2.194,0.19-3.307c3.747-32.905,11.863-63.436,24.098-90.77
	c12.495-28.266,29.819-55.059,51.482-79.598c12.805-14.569,27.134-28.456,43.696-42.354c-6.272-64.778,7.936-118.194,23.597-146.911
	c0.661-1.212,1.643-2.224,2.836-2.916L415.328,28.19l25.951-14.98c1.723-0.992,3.777-1.262,5.701-0.751
	c1.924,0.521,3.567,1.774,4.569,3.507l2.184,3.787C478.162,62.067,463.613,116.364,421.3,140.793z"/>
<path style="fill:#9393A3;" d="M421.3,140.793l-20.35,11.743c-11.022,6.373-23.086,10.13-35.37,11.232l-19.268-35.119
	c12.124,2.655,25.24,0.992,36.823-5.691l20.47-11.823c25.811-14.899,34.689-48.025,19.779-73.836l-8.056-9.108l25.951-14.98
	c1.723-0.992,3.777-1.262,5.701-0.751c1.924,0.521,3.567,1.774,4.569,3.507l2.184,3.787
	C478.162,62.067,463.613,116.364,421.3,140.793z"/>
<path style="fill:#B4CCCB;" d="M502.25,109.963c-6.771-3.166-14.457-1.683-19.579,3.775c-19.501,20.785-44.518,35.321-72.348,42.037
	c-22.229,5.364-44.724,5.517-66.867,0.454l-92.422-30.501c-2.035-0.671-4.257-0.443-6.113,0.628L20.674,255.825
	C0.921,267.23-5.871,292.578,5.534,312.331c5.525,9.569,14.445,16.413,25.117,19.273c3.564,0.955,7.18,1.427,10.772,1.427
	c7.167,0,14.242-1.88,20.616-5.56L236.54,226.723c30.819,13.002,70.028,35.463,71.74,36.447c0.571,0.328,1.182,0.579,1.815,0.747
	v0.001c25.793,6.874,53.227,7.179,79.336,0.878c32.612-7.87,61.491-25.325,83.514-50.48c21.532-24.592,34.99-54.672,38.923-86.99
	C512.768,119.931,508.992,113.115,502.25,109.963z"/>
<path style="fill:#9AB2B0;" d="M502.25,109.963c-1.546-0.722-3.14-1.191-4.739-1.438c-4.782,30.068-17.878,57.991-38.09,81.075
	c-22.024,25.155-50.903,42.61-83.514,50.48c-26.11,6.301-53.544,5.996-79.336-0.878v-0.001c-0.632-0.168-1.243-0.42-1.815-0.747
	c-1.712-0.984-40.921-23.446-71.74-36.447L48.513,302.756c-6.374,3.679-13.448,5.56-20.616,5.56c-3.593,0-7.209-0.472-10.772-1.427
	c-6.26-1.677-11.911-4.735-16.634-8.901c0.757,4.919,2.409,9.78,5.043,14.343c5.525,9.569,14.445,16.413,25.117,19.273
	c3.564,0.955,7.18,1.427,10.772,1.427c7.167,0,14.242-1.88,20.616-5.56L236.54,226.724c30.819,13.002,70.028,35.463,71.74,36.447
	c0.571,0.328,1.182,0.579,1.815,0.747v0.001c25.793,6.874,53.227,7.179,79.336,0.878c32.612-7.87,61.491-25.325,83.514-50.48
	c21.532-24.592,34.99-54.672,38.923-86.99C512.768,119.931,508.992,113.115,502.25,109.963z"/>
<path style="fill:#FF5F5F;" d="M225.241,224.57l-33.85-58.63c-0.997-1.726-2.638-2.985-4.563-3.502
	c-1.926-0.515-3.976-0.245-5.702,0.751L20.674,255.825C0.921,267.23-5.871,292.578,5.534,312.331
	c5.525,9.569,14.445,16.413,25.117,19.273c3.564,0.955,7.18,1.427,10.772,1.427c7.167,0,14.242-1.88,20.616-5.56l160.451-92.636
	C226.084,232.761,227.316,228.165,225.241,224.57z"/>
<path style="fill:#E24B4B;" d="M225.241,224.57l-8.34-14.446c-0.572,0.724-1.284,1.358-2.132,1.847l-160.45,92.637
	c-6.374,3.679-13.448,5.56-20.616,5.56c-3.593,0-7.209-0.472-10.772-1.427c-9.351-2.505-17.354-8.07-22.91-15.845
	c0.188,6.628,1.973,13.302,5.514,19.436c5.525,9.569,14.445,16.413,25.117,19.273c3.564,0.955,7.18,1.427,10.772,1.427
	c7.167,0,14.242-1.88,20.616-5.56l160.452-92.637C226.084,232.761,227.316,228.165,225.241,224.57z"/>
<circle style="fill:#FF5F5F;" cx="321.316" cy="206.96" r="60.805"/>
<circle style="fill:#E1EEF7;" cx="321.316" cy="206.96" r="23.967"/>
<path style="fill:#FF5F5F;" d="M212.469,297.002c-21.661,24.539-38.987,51.333-51.482,79.603
	c-12.241,27.327-20.35,57.865-24.102,90.761c0,0,0,0.001,0,0.002c-1.814,15.95,9.688,30.413,25.649,32.243
	c1.086,0.123,2.168,0.183,3.241,0.183c13.663,0,25.891-9.757,28.616-23.394c0.009-0.045,0.018-0.09,0.026-0.135l0.073-0.403
	c5.204-26.393,13.555-50.19,24.837-70.763c11.481-21.175,26.657-40.96,45.112-58.814c5.803-5.628,12.112-11.242,18.757-16.689
	c5.136-4.215,10.5-8.348,16.114-12.442l-63.604-44.247C227.4,280.806,219.683,288.794,212.469,297.002z"/>
<g>
</g>
<g>
</g>
<g>
</g>
<g>
</g>
<g>
</g>
<g>
</g>
<g>
</g>
<g>
</g>
<g>
</g>
<g>
</g>
<g>
</g>
<g>
</g>
<g>
</g>
<g>
</g>
<g>
</g>
</svg>
