<svg id="Layer_1" enable-background="new 0 0 512.001 512.001" height="512" viewBox="0 0 512.001 512.001" width="512" xmlns="http://www.w3.org/2000/svg"><g><path d="m104.001 296h-16v-16c0-17.673 14.327-32 32-32h16v16c0 17.674-14.327 32-32 32z" fill="#79cb9c"/><path d="m120.001 248v16c0 17.673-14.327 32-32 32h16c17.673 0 32-14.327 32-32v-16z" fill="#63ac7d"/><path d="m88.001 280h-16c-17.673 0-32-14.327-32-32v-16h16c17.673 0 32 14.327 32 32z" fill="#79cb9c"/><path d="m56.001 232h-16c17.673 0 32 14.327 32 32v16h16v-16c0-17.673-14.327-32-32-32z" fill="#63ac7d"/><path d="m272.001 296h-16v-16c0-17.673 14.327-32 32-32h16v16c0 17.674-14.327 32-32 32z" fill="#79cb9c"/><path d="m288.001 248v16c0 17.673-14.327 32-32 32h16c17.673 0 32-14.327 32-32v-16z" fill="#63ac7d"/><path d="m256.001 280h-16c-17.673 0-32-14.327-32-32v-16h16c17.673 0 32 14.327 32 32z" fill="#79cb9c"/><path d="m224.001 232h-16c17.673 0 32 14.327 32 32v16h16v-16c0-17.673-14.327-32-32-32z" fill="#63ac7d"/><path d="m408.001 72h-16v-16c0-17.673 14.327-32 32-32h16v16c0 17.674-14.327 32-32 32z" fill="#79cb9c"/><path d="m424.001 24v16c0 17.673-14.327 32-32 32h16c17.673 0 32-14.327 32-32v-16z" fill="#63ac7d"/><path d="m392.001 56h-16c-17.673 0-32-14.327-32-32v-16h16c17.673 0 32 14.327 32 32z" fill="#79cb9c"/><path d="m360.001 8h-16c17.673 0 32 14.327 32 32v16h16v-16c0-17.673-14.327-32-32-32z" fill="#63ac7d"/><path d="m472.001 160h40v32h-40z" fill="#44454e"/><path d="m456.001 152h-128c0-19.474 17.225-34.253 36.13-31.73 12.247-21.662 43.479-21.686 55.74 0 18.926-2.525 36.13 12.274 36.13 31.73z" fill="#d9b3af"/><path d="m419.871 120.27c-9.713-17.179-32.496-21.57-47.87-9.238 3.174 2.545 5.857 5.677 7.87 9.238 18.926-2.526 36.13 12.274 36.13 31.73h40c0-19.474-17.225-34.253-36.13-31.73z" fill="#c4928a"/><path d="m512.001 328v88c-525.547 0-488-.555-488 1h-24v-73h8c12.955-8.637 21.664-16 38.42-16 5.406 0 10.051-.04 16.96 2.04 4.46 1.35 8.71 3.35 12.62 5.96 7.82 5.22 17.02 8 26.42 8 5.406 0 10.051.04 16.96-2.04 4.46-1.35 8.71-3.35 12.62-5.96 7.82-5.22 17.02-8 26.42-8 5.406 0 10.051-.04 16.96 2.04 4.46 1.35 8.71 3.35 12.62 5.96 7.82 5.22 17.02 8 26.42 8 5.406 0 10.051.04 16.96-2.04 4.46-1.35 8.71-3.35 12.62-5.96 7.82-5.22 17.02-8 26.42-8 5.406 0 10.051-.04 16.96 2.04 4.46 1.35 8.71 3.35 12.62 5.96 7.82 5.22 17.02 8 26.42 8h3.16c9.4 0 18.6-2.78 26.42-8 4.798-3.414 11.997-1.483 14.51 4.46 4.886 11.553 16.308 19.54 29.49 19.54 0 13.245 10.74 24 24 24 13.253 0 24-10.759 24-24 13.232 0 24-10.736 24-24 0-4.42 3.58-8 8-8z" fill="#d9b3af"/><path d="m.001 416h512v88h-512z" fill="#aa7569"/><path d="m512.001 328v88h-40v-80c0-4.42 3.58-8 8-8z" fill="#c4928a"/><path d="m472.001 416h40v88h-40z" fill="#9a6758"/><path d="m360.001 208h96c8.837 0 16-7.163 16-16v-24c0-8.837-7.163-16-16-16-155.515 0-152 .1-152 0 0 30.928 25.072 56 56 56z" fill="#edebfd"/><path d="m456.001 152h-40c8.837 0 16 7.164 16 16v24c0 8.836-7.163 16-16 16h40c8.837 0 16-7.164 16-16v-24c0-8.836-7.164-16-16-16z" fill="#d2d2fc"/><path d="m504.001 408h-496c-4.418 0-8 3.582-8 8s3.582 8 8 8h496c4.418 0 8-3.582 8-8s-3.582-8-8-8z"/><path d="m176.001 456c4.418 0 8-3.582 8-8s-3.582-8-8-8h-16c-4.418 0-8 3.582-8 8s3.582 8 8 8z"/><path d="m352.001 456c4.418 0 8-3.582 8-8s-3.582-8-8-8h-16c-4.418 0-8 3.582-8 8s3.582 8 8 8z"/><path d="m88.001 480c4.418 0 8-3.582 8-8s-3.582-8-8-8h-16c-4.418 0-8 3.582-8 8s3.582 8 8 8z"/><path d="m264.001 480c4.418 0 8-3.582 8-8s-3.582-8-8-8h-16c-4.418 0-8 3.582-8 8s3.582 8 8 8z"/><path d="m440.001 480c4.418 0 8-3.582 8-8s-3.582-8-8-8h-16c-4.418 0-8 3.582-8 8s3.582 8 8 8z"/><path d="m8.001 456h16c4.418 0 8-3.582 8-8s-3.582-8-8-8h-16c-4.418 0-8 3.582-8 8s3.581 8 8 8z"/><path d="m504.001 440h-16c-4.418 0-8 3.582-8 8s3.582 8 8 8h16c4.418 0 8-3.582 8-8s-3.582-8-8-8z"/><path d="m504.001 184h-24v-16h24c4.418 0 8-3.582 8-8s-3.582-8-8-8h-30.131c-2.795-3.118-6.392-5.501-10.464-6.825-3.25-18.814-19.677-33.175-39.405-33.175-.241 0-7.53-11.794-24-15.172v-16.828h8c22.056 0 40-17.944 40-40v-16c0-4.418-3.582-8-8-8h-16c-8.998 0-17.31 2.988-24 8.022v-16.022c0-4.418-3.582-8-8-8s-8 3.582-8 8c0 .44-8.593-8-24-8h-16c-4.418 0-8 3.582-8 8v16c0 22.056 17.944 40 40 40h8v32.828c-9.537 1.956-18.112 7.336-23.999 15.172-19.425 0-35.501 13.87-39.196 32h-16.805c-4.418 0-8 3.582-8 8 0 35.29 28.71 64 64 64h96c10.429 0 19.321-6.689 22.624-16h25.376c4.418 0 8-3.582 8-8s-3.582-8-8-8zm-80-152h8v8c0 13.233-10.766 24-24 24h-8v-8c0-13.233 10.766-24 24-24zm-72-8v-8h8c13.234 0 24 10.767 24 24v8h-8c-13.234 0-24-10.766-24-24zm11.074 104.2c3.233.439 6.412-1.148 8.02-3.992 9.187-16.246 32.621-16.253 41.813 0 1.608 2.843 4.787 4.428 8.019 3.992 11.177-1.48 21.932 5.163 25.704 15.801h-109.259c3.783-10.669 14.558-17.279 25.703-15.801zm92.926 71.8h-96c-23.742 0-43.514-17.327-47.333-40h143.333c4.411 0 8 3.589 8 8v24c0 4.412-3.589 8-8 8z"/><path d="m504.001 320h-24c-8.822 0-16 7.178-16 16 0 8.771-7.1 16-16 16-4.418 0-8 3.582-8 8 0 14.102-17.18 21.444-27.313 11.313-3.022-3.021-4.687-7.039-4.687-11.313 0-4.418-3.582-8-8-8-10.072 0-18.516-6.139-22.118-14.656-4.383-10.366-16.967-14.236-26.229-8.061-6.691 4.462-14.274 6.717-22.076 6.717h-3.155c-7.851 0-15.453-2.302-21.984-6.656-12.042-8.027-25.892-10.651-40.438-8.971v-16.373h8c22.056 0 40-17.944 40-40v-16c0-4.418-3.582-8-8-8h-16c-8.998 0-17.31 2.988-24 8.022v-16.022c0-4.418-3.582-8-8-8-4.365 0-8 3.52-8 8.022-6.69-5.034-15.002-8.022-24-8.022h-16c-4.418 0-8 3.582-8 8v16c0 22.056 17.944 40 40 40h8v36.721c-2.922 1.289-5.746 2.828-8.438 4.623-6.531 4.354-14.133 6.656-21.984 6.656h-3.155c-7.851 0-15.453-2.302-21.984-6.656-9.169-6.112-19.84-9.344-30.86-9.344h-3.155c-11.021 0-21.691 3.231-30.86 9.344-6.531 4.354-14.133 6.656-21.984 6.656-3.538 0-5.76.087-9.578-.538v-31.462h8c22.056 0 40-17.944 40-40v-16c0-4.418-3.582-8-8-8h-16c-8.998 0-17.31 2.988-24 8.022v-16.022c0-4.418-3.582-8-8-8s-8 3.582-8 8c0 .44-8.593-8-24-8h-16c-4.418 0-8 3.582-8 8v16c0 22.056 17.944 40 40 40h8v41.063c-9.073-5.926-19.578-9.063-30.424-9.063-21.982 0-28.964 5.977-46.015 17.344-3.676 2.45-4.67 7.418-2.219 11.094 2.451 3.677 7.417 4.67 11.094 2.219 15.8-10.534 19.817-14.657 37.14-14.657 7.851 0 15.453 2.302 21.984 6.656 9.169 6.112 19.84 9.344 30.86 9.344h3.155c11.021 0 21.691-3.231 30.86-9.344 6.531-4.354 14.133-6.656 21.984-6.656h3.155c7.851 0 15.453 2.302 21.984 6.656 9.169 6.112 19.84 9.344 30.86 9.344h3.155c11.021 0 21.691-3.231 30.86-9.344 6.531-4.354 14.133-6.656 21.984-6.656h3.155c7.851 0 15.453 2.302 21.984 6.656 9.169 6.112 19.84 9.344 30.86 9.344h3.155c11.021 0 21.691-3.231 30.838-9.329 1.13-.753 2.293-.13 2.729.903 5.089 12.036 16.051 21.342 29.702 23.793 5.61 23.918 35.782 33.217 53.786 15.253 4.306-4.315 7.233-9.637 8.559-15.429 14.079-3.224 24.808-15.867 24.808-31.191h24c4.418 0 8-3.582 8-8s-3.577-8-7.995-8zm-216-64h8v8c0 13.233-10.766 24-24 24h-8v-8c0-13.233 10.766-24 24-24zm-72-8v-8h8c13.234 0 24 10.767 24 24v8h-8c-13.234 0-24-10.766-24-24zm-96 8h8v8c0 13.233-10.766 24-24 24h-8v-8c0-13.233 10.766-24 24-24zm-72-8v-8h8c13.234 0 24 10.767 24 24v8h-8c-13.234 0-24-10.766-24-24z"/><path d="m504.001 496h-496c-4.418 0-8 3.582-8 8s3.582 8 8 8h496c4.418 0 8-3.582 8-8s-3.582-8-8-8z"/></g></svg>