<svg height="60" viewBox="0 0 60 60" width="60" xmlns="http://www.w3.org/2000/svg"><g id="Page-1" fill="none" fill-rule="evenodd"><g id="046---Give-Crops"><g fill-rule="nonzero"><path id="Shape" d="m10 36v21c0 1.1045695-.8954305 2-2 2h-5c-1.10320187-.0032948-1.9967052-.8967981-2-2v-21c.0032948-1.1032019.89679813-1.9967052 2-2h5c1.10320187.0032948 1.9967052.8967981 2 2z" fill="#02a9f4"/><path id="Shape" d="m8 34h-3c1.10320187.0032948 1.9967052.8967981 2 2v21c0 1.1045695-.8954305 2-2 2h3c1.1045695 0 2-.8954305 2-2v-21c-.0032948-1.1032019-.89679813-1.9967052-2-2z" fill="#0377bc"/><path id="Shape" d="m57.68 45.57-18.74 11.41c-1.0968305.667384-2.3560847 1.020252-3.64 1.02l-25.57.0000001c.386-.6590001.27.8669999.27-22.0000001h2.8c2.0712042.0046289 4.0799905.7094662 5.7 2 1.6191584 1.2920724 3.6284989 1.9971041 5.7 2h5.23c3.832 0 6.469 4.361 3.83 7h2.35c.932 0-.174.271 19.78-6.38 1.120338-.3678364 2.3505552.0181141 3.06.96v.01c.4649441.6171961.6465512 1.4025179.4997758 2.1611752s-.608183 1.4195768-1.2697758 1.8188248z" fill="#ffe0b2"/><path id="Shape" d="m30.26 47c1.0194467.0637105 2.0424645.0406274 3.058-.069 2.508-2.631-.062-6.931-3.888-6.931h-3c3.888 0 6.425 4.405 3.83 7z" fill="#dfc49c"/><path id="Shape" d="m58.45 41.59v-.01c-.7094448-.9418859-1.939662-1.3278364-3.06-.96l-.749.25c.3140349.1807419.5890261.4220816.809.71v.01c.4649441.6171961.6465512 1.4025179.4997758 2.1611752s-.608183 1.4195768-1.2697758 1.8188248l-18.74 11.41c-1.0968305.667384-2.3560847 1.020252-3.64 1.02 2.991 0 4.586.231 6.64-1.02l18.74-11.41c.6615928-.399248 1.1230004-1.0601675 1.2697758-1.8188248s-.0348317-1.5439791-.4997758-2.1611752z" fill="#dfc49c"/><path id="Shape" d="m53.44 41.27c-18.012 6.004-16.923 5.73-17.83 5.73h-2.35c2.645-2.645-.009-7-3.83-7h-5.23c-2.0715011-.0028959-4.0808416-.7079276-5.7-2-.6449915-.5160273-1.3584602-.94007-2.12-1.26 1.9893548-1.7485761 4.7952494-2.2246107 7.25-1.23 1.4374762-1.7220048 3.6142231-2.6492716 5.8518927-2.4928328 2.2376697.1564389 4.2642192 1.3775645 5.4481073 3.2828328.0055228 0 .01.0044772.01.01 2.9719824-2.1334912 7.0870725-1.6098318 9.43 1.2 3.5428557-1.4395589 7.5847889.2360386 9.07 3.76z" fill="#a0522d"/><path id="Shape" d="m47 37c-.512208.0024727-1.0225973.0611574-1.522.175 2.2243348.4742771 4.0768549 2.0049769 4.962 4.1l-16.56 5.515c-.1835944.0608136-.3714418.1079426-.562.141-.021.022-.036.047-.058.0690005l2.35-.0000005c.4319935.0002223.8610725-.0707278 1.27-.21l16.56-5.52c-1.0896992-2.5913404-3.6288677-4.2749195-6.44-4.27z" fill="#783e22"/><path id="Shape" d="m43 4c.0039999 1.32730464-.5214997 2.60139957-1.4600501 3.53994994-.9385503.93855037-2.2126453 1.46405-3.5399499 1.46005006l-3 .00002267v-1.00002267c0-2.76142375 2.2385763-5 5-5h2c.5522847 0 1 .44771525 1 1z" fill="#60a917"/><path id="Shape" d="m42 3h-2c-.2239053.00750621-.447064.02988889-.668.067.3966995.13959873.6636692.51247703.668.933.0039999 1.32730464-.5214997 2.60139957-1.4600501 3.53994994-.9385503.93855037-2.2126453 1.46405-3.5399499 1.46007273l3-.00002267c1.3273046.00399994 2.6013996-.52149969 3.5399499-1.46005006.9385504-.93855037 1.46405-2.2126453 1.4600501-3.53994994 0-.55228475-.4477153-1-1-1z" fill="#549414"/><path id="Shape" d="m35 8v1.00002267l-3-.00002267c-1.3273046.00399994-2.6013996-.52149969-3.5399499-1.46005006-.9385504-.93855037-1.46405-2.2126453-1.4600501-3.53994994 0-.55228475.4477153-1 1-1h2c1.3260824 0 2.597852.5267842 3.5355339 1.46446609.9376819.9376819 1.4644661 2.20945146 1.4644661 3.53553391z" fill="#60a917"/><path id="Shape" d="m30 3h-2c-.1136712.00329353-.2259479.02595178-.332.067 2.4751168.32836178 4.3261552 2.43620395 4.332 4.933v1h3v-1c0-2.76142375-2.2385763-5-5-5z" fill="#549414"/><path id="Shape" d="m44 14c.0039999 1.3273046-.5214997 2.6013996-1.4600501 3.5399499-.9385503.9385504-2.2126453 1.46405-3.5399499 1.4600501l-4 .0000227v-1.0000227c0-2.7614237 2.2385763-5 5-5h3c.5522847 0 1 .4477153 1 1z" fill="#60a917"/><path id="Shape" d="m43 13h-3c.5522847 0 1 .4477153 1 1 .0039999 1.3273046-.5214997 2.6013996-1.4600501 3.5399499-.9385503.9385504-2.2126453 1.46405-3.5399499 1.4600728l3-.0000227c1.3273046.0039999 2.6013996-.5214997 3.5399499-1.4600501.9385504-.9385503 1.46405-2.2126453 1.4600501-3.5399499 0-.5522847-.4477153-1-1-1z" fill="#549414"/><path id="Shape" d="m35 18v1.0000227l-4-.0000227c-1.3273046.0039999-2.6013996-.5214997-3.5399499-1.4600501-.9385504-.9385503-1.46405-2.2126453-1.4600501-3.5399499 0-.5522847.4477153-1 1-1h3c2.7614237 0 5 2.2385763 5 5z" fill="#60a917"/><path id="Shape" d="m30 13h-3c2.7614237 0 5 2.2385763 5 5v1h3v-1c0-2.7614237-2.2385763-5-5-5z" fill="#549414"/><path id="Shape" d="m45 24c.0039999 1.3273046-.5214997 2.6013996-1.4600501 3.5399499-.9385503.9385504-2.2126453 1.46405-3.5399499 1.4600501l-5 .0000227v-1.0000227c0-2.7614237 2.2385763-5 5-5h4c.5522847 0 1 .4477153 1 1z" fill="#60a917"/><path id="Shape" d="m44 23h-3c.5522847 0 1 .4477153 1 1 .0039999 1.3273046-.5214997 2.6013996-1.4600501 3.5399499-.9385503.9385504-2.2126453 1.46405-3.5399499 1.4600728l3-.0000227c1.3273046.0039999 2.6013996-.5214997 3.5399499-1.4600501.9385504-.9385503 1.46405-2.2126453 1.4600501-3.5399499 0-.5522847-.4477153-1-1-1z" fill="#549414"/><path id="Shape" d="m35 28v1.0000227l-5-.0000227c-1.3273046.0039999-2.6013996-.5214997-3.5399499-1.4600501-.9385504-.9385503-1.46405-2.2126453-1.4600501-3.5399499 0-.5522847.4477153-1 1-1h4c2.7614237 0 5 2.2385763 5 5z" fill="#60a917"/><path id="Shape" d="m30 23h-3c2.7614237 0 5 2.2385763 5 5v1h3v-1c0-2.7614237-2.2385763-5-5-5z" fill="#549414"/></g><path id="Shape" d="m34.1 37c.2592328-.2544291.5377274-.4884583.833-.7" stroke="#000" stroke-linecap="round" stroke-linejoin="round" stroke-width="2"/><path id="Shape" d="m44.37 37.51c.3808255.4539233.7020934.9546441.956 1.49" stroke="#000" stroke-linecap="round" stroke-linejoin="round" stroke-width="2"/><path id="Shape" d="m23.63 35.511c.3377684.1372185.6644104.3003723.977.488" stroke="#000" stroke-linecap="round" stroke-linejoin="round" stroke-width="2"/><path id="Shape" d="m3 60h5c.84849384-.0026614 1.6557601-.3662948 2.22-1h25.08c1.4672638.0005032 2.9064065-.402526 4.16-1.165l18.74-11.409c1.6305932-.9879584 2.258364-3.0434645 1.4579833-4.7738652-.8003808-1.7304007-2.7732674-2.5829969-4.5819833-1.9801348l-1.135.378c-1.8375482-3.2608033-5.698654-4.8009166-9.276-3.7-2.2685695-2.2816238-5.6868633-2.9747504-8.665-1.757v-4.593h4c3.3123376-.0033074 5.9966926-2.6876624 6-6 0-1.1045695-.8954305-2-2-2h-4c-1.4780119.0003999-2.9033147.5491415-4 1.54v-3.54h3c3.3123376-.0033074 5.9966926-2.6876624 6-6 0-1.1045695-.8954305-2-2-2h-3c-1.4780119.0003999-2.9033147.5491415-4 1.54v-3.54h2c3.3123376-.00330738 5.9966926-2.68766243 6-6 0-1.1045695-.8954305-2-2-2-2.263 0-4.047-.213-6 1.54v-2.54c0-.55228475-.4477153-1-1-1s-1 .44771525-1 1v2.54c-2-1.798-3.992-1.54-6-1.54-1.1045695 0-2 .8954305-2 2 .0033074 3.31233757 2.6876624 5.99669262 6 6h2v3.54c-1.0966853-.9908585-2.5219881-1.5396001-4-1.54h-3c-1.1045695 0-2 .8954305-2 2 .0033074 3.3123376 2.6876624 5.9966926 6 6h3v3.54c-1.0966853-.9908585-2.5219881-1.5396001-4-1.54h-4c-1.1045695 0-2 .8954305-2 2 .0033074 3.3123376 2.6876624 5.9966926 6 6h4v3.762c-3.1825934-2.5569094-7.7808448-2.3033436-10.663.588-2.4361288-.7334045-5.0756601-.2697431-7.116 1.25-1.7425882-.5552395-3.5780321-.7591777-5.4-.6-.4228715-1.1960735-1.5523778-1.9968579-2.821-2h-5c-1.65685425 0-3 1.3431458-3 3v21c0 1.6568542 1.34314575 3 3 3zm37-36h4c0 2.209139-1.790861 4-4 4h-4c0-2.209139 1.790861-4 4-4zm0-10h3c0 2.209139-1.790861 4-4 4h-3c0-2.209139 1.790861-4 4-4zm0-10h2c0 2.209139-1.790861 4-4 4h-2c0-2.209139 1.790861-4 4-4zm-12 0h2c2.209139 0 4 1.790861 4 4h-2c-2.209139 0-4-1.790861-4-4zm-1 10h3c2.209139 0 4 1.790861 4 4h-3c-2.209139 0-4-1.790861-4-4zm-1 10h4c2.209139 0 4 1.790861 4 4h-4c-2.209139 0-4-1.790861-4-4zm-2.745 12.438c.819.333.9.561 1.35.561.4071009.0045615.7750587-.2418054.9259179-.6199502.1508591-.3781448.0535293-.810136-.2449179-1.0870498 2.536607-2.0109147 6.2134148-1.6352958 8.291.847-.056.051-.121.094-.176.147-.3848879.3882764-.3866134 1.0136781-.0038738 1.4040724.3827395.3903943 1.0080527.4010521 1.4038738.0239276 1.3887138-1.3511919 3.3432895-1.9506777 5.250774-1.6104591 1.9074844.3402187 3.5342803 1.5784773 4.370226 3.3264591.1536242.3226108.4676896.538758.8238909.5670209.3562013.028263.700423-.1356521.903-.43.2025771-.2943478.2327333-.6744101.0791091-.9970209-.077-.162-.173-.313-.261-.47 2.3510313-.4268097 4.728741.5978953 6.033 2.6-17.16 5.716-15.523 5.3-16.961 5.3 1.25-3.47-1.948-7-5.607-7h-5.232c-3.195 0-4.9-1.723-5.886-2.36 1.5444403-.7625866 3.3394651-.8359716 4.941-.202zm-5.38 2.343c1.7966489 1.4337995 4.0263657 2.2160512 6.325 2.219h5.231c2.659 0 4.952 2.875 3.37 5h-6.08c-2.2725838.0253408-4.4757105.7867336-6.279 2.17-.4583963.3081749-.5801749.9296037-.272 1.388s.9296037.5801749 1.388.272c1.4739176-1.1593786 3.287946-1.8023521 5.163-1.83 9.724 0 9.454.087 10.475-.262l18.504-6.169c.8409623-.2738447 1.753863.1243737 2.1252326.9270524s.0838985 1.7562645-.6692326 2.2199476l-18.736 11.411c-.9402716.5715924-2.0196236.8736034-3.12.873l-24.3.0000009v-20.0000009c2.272 0 4.431-.175 6.875 1.781zm-15.875-2.781c0-.5522847.44771525-1 1-1h5c.55228475 0 1 .4477153 1 1v21c0 .5522847-.44771525 1-1 1h-5c-.55228475 0-1-.4477153-1-1z" fill="#000" fill-rule="nonzero"/><path id="Shape" d="m37.663 41.941c.5185487.1862241 1.0900356-.0820796 1.278-.6.0698167-.1845162.2154838-.3301833.4-.4.3492378-.1109675.6098102-.4040645.6791245-.7638927s-.0637326-.7287487-.3467574-.96151c-.2830247-.2327613-.6706911-.2920785-1.0103671-.1545973-.743599.2706403-1.3293597.856401-1.6 1.6-.1875381.5191367.0810135 1.0920467.6 1.28z" fill="#000" fill-rule="nonzero"/></g></g></svg>