<svg id="Capa_1" enable-background="new 0 0 512 512" height="512" viewBox="0 0 512 512" width="512" xmlns="http://www.w3.org/2000/svg"><g><g><g><path d="m458.082 460.591h-408.355c-4.568 0-8.271-3.703-8.271-8.271v-25.806h424.898v25.806c0 4.567-3.703 8.271-8.272 8.271z" fill="#e59a69"/></g></g><g><g><path d="m228.258 104.851c-17.513 17.538-39.047 24.429-48.098 15.392-9.051-9.038-2.192-30.582 15.321-48.12 13.769-13.789 39.254-19.052 49.523-20.672 2.258-.356 4.207 1.59 3.854 3.848-1.606 10.269-6.832 35.763-20.6 49.552z" fill="#72c888"/></g></g><g><g><path d="m25.392 200.972c4.882 13.718 15.963 23.444 28.971 27.165 4.169 1.193 7.142 4.921 7.163 9.258.021 4.377.96 8.844 2.943 13.142 5.208 11.289 16.654 18.262 28.687 18.266 5.059.002 9.523 3.315 11.26 8.066 2.324 6.355 5.257 14.341 8.64 23.528l48.445-9.285-10.544-30.822c-1.655-4.775-.297-10.167 3.614-13.367 9.299-7.609 13.748-20.227 10.655-32.252-1.179-4.584-3.273-8.638-6.022-12.044-2.723-3.374-2.774-8.141-.296-11.698 7.733-11.103 10.177-25.643 5.295-39.362-4.718-13.257-15.226-22.786-27.668-26.77-3.514-1.125-5.992-4.188-6.661-7.817-.839-4.556-2.287-9.099-4.416-13.533-11.284-23.489-38.338-35.543-63.338-28.193-29.794 8.76-45.736 40.577-35.466 69.433.983 2.761 2.172 5.387 3.542 7.873 1.8 3.267 1.585 7.286-.429 10.425-7 10.912-9.058 24.828-4.375 37.987z" fill="#72c888"/></g></g><g><g><path d="m201.016 114.93c-8.751 0-17.124 1.944-24.848 5.486-7.724-3.541-16.098-5.486-24.848-5.486-38.713 0-70.097 37.941-70.097 84.743s31.383 84.743 70.097 84.743c8.751 0 17.124-1.944 24.848-5.485 7.724 3.541 16.098 5.485 24.848 5.485 38.713 0 70.096-37.941 70.096-84.743s-31.383-84.743-70.096-84.743z" fill="#fe787e"/></g></g><g><g><path d="m201.016 114.93c-5.15 0-10.164.69-14.997 1.966 31.501 8.308 55.093 42.203 55.093 82.777s-23.592 74.469-55.093 82.777c4.833 1.276 9.847 1.966 14.997 1.966 38.713 0 70.096-37.941 70.096-84.743s-31.383-84.743-70.096-84.743z" fill="#fb5c6f"/></g></g><g><g><path d="m438.791 167.319c-8.849-49.703-45.13-86.06-85.383-89.087-2.509-.189-4.571-2.053-5.012-4.531l-.714-4.01c-1.337-7.508-8.507-12.512-16.016-11.175-7.508 1.337-12.512 8.507-11.175 16.016l.714 4.01c.441 2.478-.85 4.939-3.14 5.982-36.735 16.735-58.238 63.379-49.389 113.082s45.13 86.06 85.383 89.087c2.509.189 4.571 2.053 5.012 4.531l.55 3.088c1.337 7.509 8.507 12.512 16.016 11.175 7.508-1.337 12.512-8.507 11.175-16.016l-.55-3.088c-.441-2.478.85-4.939 3.141-5.982 36.734-16.735 58.237-63.379 49.388-113.082z" fill="#ffe07d"/></g></g><g><g><path d="m438.791 167.319c-8.364-46.976-41.234-82.012-78.8-88.274-.087 1.139-.05 2.305.159 3.482l.714 4.01c.441 2.478-.85 4.939-3.14 5.982-36.735 16.735-58.238 63.379-49.389 113.082 8.345 46.871 41.086 81.859 78.547 88.235.201-1.414.193-2.881-.071-4.364l-.55-3.089c-.441-2.477.85-4.939 3.141-5.982 36.735-16.735 58.238-63.379 49.389-113.082z" fill="#ffd064"/></g></g><g><g><path d="m292.399 207.17c-8.95 40.709-33.236 69.966-54.245 65.347s-30.785-41.364-21.835-82.073c7.036-32.006 38.398-62.532 51.486-74.122 2.878-2.549 7.402-1.554 8.945 1.967 7.019 16.01 22.685 56.875 15.649 88.881z" fill="#72c888"/></g></g><g><g><path d="m482.441 76.987c-23.975-19.74-59.255-15.072-77.37 9.627-1.733 2.363-3.239 4.822-4.527 7.351-1.693 3.323-5.14 5.402-8.868 5.497-12.96.332-25.632 6.441-33.893 17.704-8.612 11.742-10.441 26.371-6.218 39.225 1.354 4.12-.063 8.673-3.64 11.125-3.61 2.474-6.78 5.759-9.224 9.813-6.418 10.647-5.765 24.034.987 33.994 2.839 4.188 2.603 9.742-.354 13.847-13.391 18.592-38.337 53.47-64.509 90.116h58.518l45.838-60.906c3.023-4.05 8.247-5.953 13.091-4.513 11.517 3.424 24.457.022 32.672-9.287 3.132-3.549 5.311-7.558 6.587-11.744 1.263-4.147 5.18-6.866 9.515-6.812 13.529.167 26.935-5.972 35.547-17.714 8.322-11.347 10.31-25.392 6.623-37.925-1.041-3.54.102-7.31 2.73-9.9 3.299-3.252 6.246-7.001 8.72-11.252 13.103-22.526 7.892-51.683-12.225-68.246z" fill="#90d7a7"/></g></g><g><g><path d="m482.441 76.987c-14.36-11.823-32.772-14.881-49.125-10.133 6.771 1.975 13.285 5.324 19.125 10.133 20.117 16.563 25.328 45.72 12.224 68.243-2.473 4.251-5.421 7.999-8.72 11.252-2.628 2.59-3.772 6.361-2.73 9.9 3.687 12.532 1.7 26.578-6.623 37.925-8.612 11.742-22.018 17.882-35.547 17.714-4.335-.053-8.251 2.665-9.515 6.812-1.275 4.186-3.455 8.195-6.587 11.744-8.215 9.309-21.155 12.711-32.672 9.287-4.844-1.44-10.068.463-13.091 4.513l-45.838 60.906h30l45.838-60.906c3.023-4.05 8.247-5.953 13.091-4.513 11.517 3.424 24.457.022 32.672-9.287 3.132-3.549 5.311-7.558 6.587-11.744 1.263-4.147 5.18-6.866 9.515-6.812 13.529.167 26.935-5.972 35.547-17.714 8.322-11.347 10.31-25.392 6.623-37.925-1.041-3.54.102-7.31 2.73-9.9 3.299-3.252 6.246-7.001 8.72-11.252 13.104-22.523 7.893-51.68-12.224-68.243z" fill="#72c888"/></g></g><g><g><path d="m7.5 413.31v-179.624c0-7.292 5.911-13.203 13.203-13.203h470.594c7.292 0 13.203 5.911 13.203 13.203v179.624c0 7.292-5.911 13.203-13.203 13.203h-470.594c-7.292 0-13.203-5.911-13.203-13.203z" fill="#f9eed7"/></g></g><g><g><path d="m491.297 220.483h-30c7.292 0 13.203 5.911 13.203 13.203v179.624c0 7.292-5.911 13.203-13.203 13.203h-440.594 470.594c7.292 0 13.203-5.911 13.203-13.203v-179.624c0-7.292-5.911-13.203-13.203-13.203z" fill="#e9e0c3"/></g></g><g><g><circle cx="42.406" cy="321.222" r="7.5"/></g></g><g><g><circle cx="473.854" cy="321.222" r="7.5"/></g></g><g><g><circle cx="42.406" cy="391.763" r="7.5"/></g></g><g><g><circle cx="473.854" cy="391.763" r="7.5"/></g></g><g><g><circle cx="42.406" cy="254.062" r="7.5"/></g></g><g><g><circle cx="473.854" cy="254.062" r="7.5"/></g></g><g><path d="m400.149 151.972c-.63-4.094-4.464-6.899-8.553-6.273-4.094.63-6.903 4.459-6.273 8.553l4.105 26.692c.071.46.182.904.33 1.328l-6.87 9.366c-2.45 3.34-1.728 8.034 1.612 10.483 1.336.98 2.89 1.453 4.43 1.453 2.307 0 4.584-1.062 6.054-3.065l6.874-9.372c.071.002.141.01.212.01.379 0 .763-.029 1.149-.088l26.692-4.104c4.094-.63 6.903-4.459 6.273-8.553s-4.461-6.901-8.553-6.273l-13.335 2.051 15.285-20.839c.071.002.14.009.211.009.379 0 .763-.029 1.149-.088l26.692-4.104c4.094-.63 6.903-4.459 6.273-8.553s-4.461-6.902-8.553-6.273l-13.335 2.05 21.337-29.091c2.45-3.34 1.728-8.034-1.612-10.483-3.338-2.449-8.032-1.728-10.483 1.612l-21.337 29.091-2.05-13.335c-.629-4.094-4.465-6.901-8.553-6.274-4.094.63-6.903 4.459-6.273 8.553l4.104 26.692c.071.46.182.904.33 1.328l-15.28 20.833z"/><path d="m491.296 212.983h-12.135c1.224-1.344 2.389-2.753 3.479-4.239 9.46-12.897 12.292-29.109 7.77-44.477-.278-.945.231-1.881.8-2.442 3.854-3.798 7.197-8.112 9.938-12.821 14.874-25.567 8.881-59.016-13.94-77.805-13.146-10.824-29.661-15.622-46.495-13.514-16.846 2.11-31.652 10.809-41.689 24.494-.897 1.222-1.745 2.487-2.551 3.778-12.706-8.552-26.726-13.724-40.961-15.072l-.446-2.508c-2.06-11.567-13.142-19.306-24.715-17.244-11.568 2.06-19.303 13.147-17.244 24.714l.446 2.508c-13.303 6.372-24.924 16.435-34.014 29.376-.055-.013-.106-.034-.161-.046-4.095-.901-8.415.223-11.555 3.003-4.813 4.262-11.137 10.212-17.815 17.43-6.199-6.003-13.084-10.787-20.42-14.232 1.349-1.204 2.682-2.439 3.976-3.736 15.314-15.336 20.978-42.659 22.703-53.694.535-3.421-.609-6.924-3.059-9.37s-5.955-3.583-9.374-3.044c-11.033 1.741-38.348 7.445-53.661 22.781-7.049 7.059-12.609 14.803-16.316 22.456-8.429-11.728-21.721-19.586-36.987-20.839-4.133-.339-7.75 2.732-8.089 6.861-.339 4.128 2.733 7.75 6.861 8.089 15.11 1.24 27.479 11.662 31.434 25.94-5.154-1.263-10.421-1.9-15.757-1.9-5.339 0-10.553.645-15.591 1.871-.926-3.113-2.095-6.158-3.509-9.102-12.807-26.661-43.852-40.479-72.214-32.14-16.336 4.803-29.577 15.774-37.283 30.891-7.712 15.126-8.824 32.262-3.133 48.252 1.098 3.085 2.457 6.105 4.038 8.978.448.813.38 1.895-.172 2.756-8.578 13.37-10.447 29.608-5.128 44.551 1.182 3.322 2.729 6.499 4.562 9.496h-2.186c-11.415 0-20.703 9.287-20.703 20.703v179.624c0 11.415 9.288 20.703 20.703 20.703h13.253v18.307c0 8.696 7.075 15.771 15.771 15.771h293.836c4.142 0 7.5-3.358 7.5-7.5s-3.358-7.5-7.5-7.5h-293.836c-.425 0-.771-.346-.771-.771v-18.307h409.898v18.307c0 .425-.346.771-.772.771h-84.52c-4.142 0-7.5 3.358-7.5 7.5s3.358 7.5 7.5 7.5h84.52c8.696 0 15.772-7.075 15.772-15.771v-18.307h17.442c11.416 0 20.704-9.288 20.704-20.703v-179.624c0-11.416-9.288-20.703-20.704-20.703zm-84.069-115.613c1.122-2.203 2.432-4.329 3.892-6.32 7.574-10.326 18.746-16.89 31.459-18.482 12.703-1.592 25.167 2.035 35.096 10.21 17.21 14.17 21.728 39.397 10.509 58.682-2.071 3.559-4.595 6.817-7.502 9.682-4.67 4.603-6.456 11.255-4.66 17.359 3.19 10.843 1.195 22.278-5.475 31.372-4.641 6.327-11.048 10.855-18.533 13.111h-103.473c-.546-2.081-1.424-4.069-2.644-5.868-5.271-7.776-5.574-17.948-.771-25.914 1.822-3.022 4.19-5.545 7.041-7.499 6.239-4.276 8.922-12.358 6.525-19.652-3.615-11.001-1.693-23.132 5.14-32.448 6.614-9.018 16.833-14.354 28.037-14.642 6.545-.169 12.429-3.844 15.359-9.591zm-86.054-6.02c5.409-2.463 8.458-8.271 7.416-14.122l-.714-4.011c-.61-3.425 1.681-6.707 5.105-7.317 3.424-.613 6.708 1.68 7.318 5.105l.714 4.009c1.041 5.852 5.907 10.251 11.833 10.696 9.218.693 18.393 3.38 27.091 7.862-11.231 2.894-21.156 9.554-28.2 19.158-9.691 13.212-12.418 30.409-7.295 46.001.328.999.018 2.067-.755 2.597-4.632 3.174-8.47 7.254-11.408 12.128-7.295 12.102-7.361 27.304-.38 39.526h-28.18c.35-1.402.687-2.809.998-4.221 3.289-14.961 2.419-33.065-2.588-53.809-3.454-14.308-8.182-27.061-11.988-36.128 8.098-12.422 18.763-21.885 31.033-27.474zm-45.294 32.257c19.164 44.842 16.334 72.168 14.186 81.934-.551 2.504-1.177 4.991-1.859 7.442h-25.984c1.149-12.664 3.653-25.551 7.474-38.39 1.182-3.97-1.079-8.146-5.049-9.328-3.97-1.18-8.146 1.079-9.328 5.049-4.24 14.248-6.966 28.576-8.145 42.668h-21.467c.401-6.865 1.375-13.886 2.928-20.948 2.147-9.765 11.039-35.757 47.244-68.427zm-75.091-46.186c2.958-2.962 14.156-12.49 39.649-17.544-5.017 25.5-14.529 36.713-17.486 39.675-3.352 3.357-6.919 6.332-10.603 8.869-3.728-.648-7.512-.99-11.332-.99-5.917 0-11.747.801-17.434 2.353.048-.314.083-.633.091-.959.205-8.872 6.924-21.198 17.115-31.404zm-27.746 49.812c1.984.91 4.268.91 6.252 0 6.951-3.187 14.259-4.803 21.722-4.803 14.269 0 28.065 6.025 39.164 17.035-.426.527-22.905 34.387-26.195 49.349-1.787 8.131-2.885 16.236-3.298 24.169h-121.029c-.617-4.376-.935-8.835-.935-13.309 0-42.592 28.08-77.243 62.597-77.243 7.462-.001 14.77 1.615 21.722 4.802zm-131.13 85.554c-4.298-3.958-7.479-8.78-9.454-14.33-3.75-10.536-2.43-21.988 3.622-31.422 3.535-5.511 3.797-12.444.685-18.092-1.193-2.166-2.217-4.443-3.045-6.77-4.294-12.065-3.455-24.996 2.365-36.41 5.815-11.406 15.812-19.685 28.151-23.313 21.389-6.287 44.802 4.135 54.462 24.245 1.205 2.507 2.159 5.115 2.892 7.778-28.077 13.896-47.868 46.85-47.868 85.2 0 4.461.275 8.915.807 13.309h-32.425c-.065-.064-.124-.133-.192-.195zm-21.209 15.196h470.593c3.145 0 5.704 2.559 5.704 5.703v46.231h-372.202c-4.142 0-7.5 3.358-7.5 7.5s3.358 7.5 7.5 7.5h372.202v56.019h-482v-56.019h79.798c4.142 0 7.5-3.358 7.5-7.5s-3.358-7.5-7.5-7.5h-79.798v-46.231c0-3.145 2.559-5.703 5.703-5.703zm470.593 191.029h-470.593c-3.145 0-5.703-2.559-5.703-5.703v-47.375h482v47.374c0 3.146-2.559 5.704-5.704 5.704z"/></g></g></svg>